<?xml version="1.0" encoding="utf-8"?>
	<svg
		height="100%"
		preserveAspectRatio="none"
		version="1.1"
		viewBox="0 0 100 100"
		x="0px"
		xml:space="preserve"
		xmlns="http://www.w3.org/2000/svg"
		xmlns:xlink="http://www.w3.org/1999/xlink"
		y="0px"
		width="100%"
	>
		
		<path
			style="transform: translateY(90%) scaleY(30%)"
			fill="transparent"
			stroke="currentColor"
			strokeWidth="1%"
			d="M 0,22.186 L 0.2004,21.9361 L 0.4008,21.4393 L 0.6012,20.7407 L 0.8016,20.0806 L 1.002,19.6582 L 1.2024,19.457 L 1.4028,18.8369 L 1.6032,18.2833 L 1.8036,17.8922 L 2.004,17.8429 L 2.2044,17.8205 L 2.4048,17.9034 L 2.6052,17.7808 L 2.8056,17.5837 L 3.006,17.477 L 3.2064,17.2775 L 3.4068,17.0904 L 3.6072,16.9596 L 3.8076,16.7842 L 4.008,16.5915 L 4.2084,16.3943 L 4.4088,16.1193 L 4.6092,15.8823 L 4.8096,15.702 L 5.01,15.5629 L 5.2104,15.4992 L 5.4108,15.533 L 5.6112,15.5459 L 5.8116,15.3592 L 6.012,15.1492 L 6.2124,14.9667 L 6.4128,14.727 L 6.6132,14.46 L 6.8136,14.1278 L 7.014,13.8623 L 7.2144,13.2488 L 7.4148,12.8764 L 7.6152,12.7601 L 7.8156,12.7117 L 8.016,12.5494 L 8.2164,12.2705 L 8.4168,11.8108 L 8.6172,11.2757 L 8.8176,10.7979 L 9.018,10.4293 L 9.2184,10.1334 L 9.4188,9.7891 L 9.6192,9.1762 L 9.8196,8.4344 L 10.02,7.0999 L 10.2204,5.9861 L 10.4208,5.4288 L 10.6212,4.9548 L 10.8216,4.4192 L 11.022,3.9644 L 11.2224,3.4012 L 11.4228,2.6716 L 11.6232,1.9871 L 11.8236,1.3774 L 12.024,0.8455 L 12.2244,0.2294 L 12.4248,0.1527 L 12.6253,0.4832 L 12.8257,0.9136 L 13.0261,1.24 L 13.2265,1.5759 L 13.4269,1.9248 L 13.6273,2.1034 L 13.8277,2.1519 L 14.0281,2.0818 L 14.2285,1.8994 L 14.4289,1.7761 L 14.6293,1.6836 L 14.8297,1.664 L 15.0301,1.6848 L 15.2305,1.8499 L 15.4309,1.8942 L 15.6313,2.1092 L 15.8317,2.212 L 16.0321,2.0908 L 16.2325,2.19 L 16.4329,2.462 L 16.6333,2.8176 L 16.8337,3.1314 L 17.0341,3.421 L 17.2345,3.6638 L 17.4349,3.9919 L 17.6353,4.2052 L 17.8357,4.3074 L 18.0361,4.34 L 18.2365,4.5995 L 18.4369,4.8809 L 18.6373,5.0917 L 18.8377,5.3087 L 19.0381,5.5684 L 19.2385,5.7575 L 19.4389,6.1037 L 19.6393,6.637 L 19.8397,6.765 L 20.0401,7.0217 L 20.2405,7.2008 L 20.4409,7.0716 L 20.6413,6.8462 L 20.8417,6.586 L 21.0421,6.6149 L 21.2425,6.7109 L 21.4429,6.9195 L 21.6433,7.2098 L 21.8437,7.6036 L 22.0441,8.1501 L 22.2445,8.7375 L 22.4449,9.2562 L 22.6453,9.5169 L 22.8457,9.5994 L 23.0461,9.6153 L 23.2465,9.5607 L 23.4469,9.574 L 23.6473,9.5664 L 23.8477,9.4628 L 24.0481,9.5169 L 24.2485,9.508 L 24.4489,9.4472 L 24.6493,9.4736 L 24.8497,9.762 L 25.0501,10.0571 L 25.2505,10.2908 L 25.4509,10.4845 L 25.6513,10.572 L 25.8517,10.5893 L 26.0521,10.7196 L 26.2525,10.9269 L 26.4529,11.0983 L 26.6533,11.341 L 26.8537,11.4345 L 27.0541,11.2112 L 27.2545,11.1209 L 27.4549,11.331 L 27.6553,11.5482 L 27.8557,11.5 L 28.0561,11.5006 L 28.2565,11.406 L 28.4569,11.2566 L 28.6573,11.41 L 28.8577,11.5106 L 29.0581,12.0002 L 29.2585,12.5839 L 29.4589,13.1917 L 29.6593,13.6441 L 29.8597,13.9928 L 30.0601,14.3049 L 30.2605,14.5958 L 30.4609,14.8189 L 30.6613,14.9972 L 30.8617,15.1776 L 31.0621,15.3695 L 31.2625,15.5675 L 31.4629,15.8163 L 31.6633,16.0268 L 31.8637,16.1315 L 32.0641,16.3237 L 32.2645,16.5658 L 32.4649,16.7055 L 32.6653,16.8834 L 32.8657,17.1292 L 33.0661,17.3695 L 33.2665,17.6944 L 33.4669,17.9756 L 33.6673,18.2844 L 33.8677,18.5329 L 34.0681,18.7456 L 34.2685,18.9096 L 34.4689,19.1171 L 34.6693,19.3465 L 34.8697,19.8102 L 35.0701,20.427 L 35.2705,21.0264 L 35.4709,21.6763 L 35.6713,22.2782 L 35.8717,22.8216 L 36.0721,23.2545 L 36.2725,23.4406 L 36.4729,23.6775 L 36.6733,23.973 L 36.8737,24.2888 L 37.0741,24.5634 L 37.2745,24.7815 L 37.4749,24.9521 L 37.6754,25.1123 L 37.8758,25.2927 L 38.0762,25.4001 L 38.2766,25.4317 L 38.477,25.4424 L 38.6774,25.4993 L 38.8778,25.5282 L 39.0782,25.6175 L 39.2786,25.81 L 39.479,25.9807 L 39.6794,26.1191 L 39.8798,26.1722 L 40.0802,26.3907 L 40.2806,26.6344 L 40.481,26.7227 L 40.6814,26.7377 L 40.8818,26.7921 L 41.0822,26.8959 L 41.2826,27.2892 L 41.483,27.4811 L 41.6834,27.7889 L 41.8838,28.1455 L 42.0842,28.3956 L 42.2846,28.6163 L 42.485,28.9187 L 42.6854,29.4047 L 42.8858,29.9076 L 43.0862,30.0308 L 43.2866,30.2829 L 43.487,30.7764 L 43.6874,31.1198 L 43.8878,31.2717 L 44.0882,31.6337 L 44.2886,31.9417 L 44.489,32.1907 L 44.6894,32.2888 L 44.8898,32.3643 L 45.0902,32.2956 L 45.2906,32.3375 L 45.491,32.5068 L 45.6914,32.739 L 45.8918,33.0985 L 46.0922,33.3604 L 46.2926,33.5501 L 46.493,33.7043 L 46.6934,33.9241 L 46.8938,34.0397 L 47.0942,33.9159 L 47.2946,33.4801 L 47.495,33.0149 L 47.6954,32.5839 L 47.8958,32.3841 L 48.0962,32.1244 L 48.2966,31.9268 L 48.497,31.706 L 48.6974,31.5043 L 48.8978,31.3236 L 49.0982,31.1195 L 49.2986,30.6175 L 49.499,30.0709 L 49.6994,29.5028 L 49.8998,29.0001 L 50.1002,28.5801 L 50.3006,28.1793 L 50.501,27.9285 L 50.7014,27.7647 L 50.9018,27.5746 L 51.1022,27.1708 L 51.3026,26.7452 L 51.503,26.4395 L 51.7034,26.2751 L 51.9038,25.972 L 52.1042,25.4468 L 52.3046,25.2569 L 52.505,25.0247 L 52.7054,24.6913 L 52.9058,24.5112 L 53.1062,24.3183 L 53.3066,23.9663 L 53.507,23.5522 L 53.7074,23.2228 L 53.9078,22.7852 L 54.1082,22.3916 L 54.3086,21.9192 L 54.509,21.4371 L 54.7094,20.9425 L 54.9098,20.6269 L 55.1102,20.4202 L 55.3106,20.0837 L 55.511,19.8966 L 55.7114,19.7353 L 55.9118,19.5046 L 56.1122,19.2396 L 56.3126,19.0475 L 56.513,18.9336 L 56.7134,18.629 L 56.9138,18.1516 L 57.1142,17.5625 L 57.3146,16.9543 L 57.515,16.2565 L 57.7154,15.4635 L 57.9158,14.8234 L 58.1162,14.1777 L 58.3166,13.7799 L 58.517,13.3965 L 58.7174,12.8119 L 58.9178,12.5532 L 59.1182,12.1109 L 59.3186,11.5432 L 59.519,11.3432 L 59.7194,11.3273 L 59.9198,11.2537 L 60.1202,11.3561 L 60.3206,11.4437 L 60.521,11.4687 L 60.7214,11.6389 L 60.9218,11.7256 L 61.1222,11.775 L 61.3226,11.8082 L 61.523,11.9788 L 61.7234,12.287 L 61.9238,12.3184 L 62.1242,12.1479 L 62.3246,11.9326 L 62.5251,11.6234 L 62.7255,11.4459 L 62.9259,11.182 L 63.1263,10.8803 L 63.3267,10.5121 L 63.5271,10.1072 L 63.7275,9.8333 L 63.9279,9.6308 L 64.1283,9.2601 L 64.3287,8.8035 L 64.5291,8.5051 L 64.7295,8.4523 L 64.9299,8.5771 L 65.1303,8.849 L 65.3307,9.0978 L 65.5311,9.2444 L 65.7315,9.3766 L 65.9319,9.4769 L 66.1323,9.5334 L 66.3327,9.4501 L 66.5331,9.1191 L 66.7335,8.7832 L 66.9339,8.4893 L 67.1343,8.193 L 67.3347,7.9976 L 67.5351,7.9743 L 67.7355,8.043 L 67.9359,8.1708 L 68.1363,8.4201 L 68.3367,8.3559 L 68.5371,8.0332 L 68.7375,7.6193 L 68.9379,7.0807 L 69.1383,6.4902 L 69.3387,5.9351 L 69.5391,5.6241 L 69.7395,5.2617 L 69.9399,5.0466 L 70.1403,4.9875 L 70.3407,4.9492 L 70.5411,5.0065 L 70.7415,5.0684 L 70.9419,5.2153 L 71.1423,5.3543 L 71.3427,5.2203 L 71.5431,5.0924 L 71.7435,5.1124 L 71.9439,5.1675 L 72.1443,5.3547 L 72.3447,5.6014 L 72.5451,5.9804 L 72.7455,6.0993 L 72.9459,6.2089 L 73.1463,6.1976 L 73.3467,6.2342 L 73.5471,5.94 L 73.7475,5.7509 L 73.9479,5.6646 L 74.1483,5.4799 L 74.3487,5.4247 L 74.5491,5.4801 L 74.7495,5.5759 L 74.9499,5.4832 L 75.1503,5.4511 L 75.3507,5.4809 L 75.5511,5.4853 L 75.7515,5.5511 L 75.9519,5.5356 L 76.1523,5.4918 L 76.3527,5.4297 L 76.5531,5.281 L 76.7535,5.1745 L 76.9539,5.0092 L 77.1543,4.7826 L 77.3547,4.2901 L 77.5551,3.51 L 77.7555,3.1783 L 77.9559,2.7718 L 78.1563,2.5685 L 78.3567,2.3686 L 78.5571,2.3295 L 78.7575,2.3248 L 78.9579,2.3225 L 79.1583,2.3231 L 79.3587,2.3042 L 79.5591,2.2265 L 79.7595,2.0712 L 79.9599,1.7741 L 80.1603,1.6017 L 80.3607,1.4964 L 80.5611,1.322 L 80.7615,0.9871 L 80.9619,0.5688 L 81.1623,0.0635 L 81.3627,0 L 81.5631,0.2896 L 81.7635,0.4913 L 81.9639,0.7951 L 82.1643,1.0169 L 82.3647,1.1142 L 82.5651,1.1145 L 82.7655,1.2356 L 82.9659,1.4998 L 83.1663,1.9175 L 83.3667,2.2096 L 83.5671,2.5792 L 83.7675,2.8665 L 83.9679,3.1134 L 84.1683,3.4788 L 84.3687,3.6714 L 84.5691,3.9842 L 84.7695,4.3885 L 84.9699,4.8707 L 85.1703,5.1664 L 85.3707,5.3204 L 85.5711,5.5265 L 85.7715,5.9692 L 85.9719,6.4476 L 86.1723,6.9338 L 86.3727,7.3816 L 86.5731,7.7367 L 86.7735,8.1693 L 86.9739,8.6454 L 87.1743,9.2132 L 87.3747,9.718 L 87.5752,10.1948 L 87.7756,10.723 L 87.976,11.1571 L 88.1764,11.4092 L 88.3768,11.6657 L 88.5772,12.0549 L 88.7776,12.3225 L 88.978,12.4692 L 89.1784,12.6437 L 89.3788,12.6646 L 89.5792,12.5022 L 89.7796,12.4524 L 89.98,12.5376 L 90.1804,12.5991 L 90.3808,12.7048 L 90.5812,12.8619 L 90.7816,12.901 L 90.982,12.905 L 91.1824,12.9654 L 91.3828,13.0471 L 91.5832,13.2192 L 91.7836,13.4486 L 91.984,13.7683 L 92.1844,14.0935 L 92.3848,14.3244 L 92.5852,14.3928 L 92.7856,14.3365 L 92.986,14.2148 L 93.1864,14.2234 L 93.3868,14.2958 L 93.5872,14.5341 L 93.7876,14.7551 L 93.988,14.924 L 94.1884,15.0416 L 94.3888,15.1491 L 94.5892,15.3369 L 94.7896,15.6083 L 94.99,15.8829 L 95.1904,16.1681 L 95.3908,16.5789 L 95.5912,16.916 L 95.7916,17.2168 L 95.992,17.6051 L 96.1924,17.9944 L 96.3928,18.446 L 96.5932,18.8193 L 96.7936,18.9274 L 96.994,19.2333 L 97.1944,19.8684 L 97.3948,20.4534 L 97.5952,20.7521 L 97.7956,21.2395 L 97.996,21.6794 L 98.1964,22.0758 L 98.3968,22.44 L 98.5972,22.828 L 98.7976,23.2602 L 98.998,23.7302 L 99.1984,24.0041 L 99.3988,24.2764 L 99.5992,24.4995 L 99.7996,24.7434 L 100,24.8964" />
	

		<path
			style="transform: translateY(80%) scaleY(30%)"
			fill="transparent"
			stroke="currentColor"
			strokeWidth="1%"
			d="M 0,26.843 L 0.2004,26.7641 L 0.4008,26.7536 L 0.6012,26.8402 L 0.8016,26.8349 L 1.002,26.7798 L 1.2024,26.4683 L 1.4028,26.3155 L 1.6032,26.2097 L 1.8036,25.9545 L 2.004,25.6864 L 2.2044,25.5473 L 2.4048,25.466 L 2.6052,25.2743 L 2.8056,24.957 L 3.006,24.6166 L 3.2064,24.2599 L 3.4068,23.7881 L 3.6072,23.1796 L 3.8076,22.7866 L 4.008,22.2602 L 4.2084,21.9346 L 4.4088,21.868 L 4.6092,21.6624 L 4.8096,21.4939 L 5.01,21.1582 L 5.2104,20.9348 L 5.4108,20.783 L 5.6112,20.7632 L 5.8116,20.7265 L 6.012,20.6624 L 6.2124,20.7081 L 6.4128,20.8181 L 6.6132,21.0439 L 6.8136,21.1173 L 7.014,20.8132 L 7.2144,20.6291 L 7.4148,20.5253 L 7.6152,20.2534 L 7.8156,19.9203 L 8.016,19.7255 L 8.2164,19.5511 L 8.4168,19.3394 L 8.6172,19.1137 L 8.8176,18.9726 L 9.018,18.8492 L 9.2184,18.6237 L 9.4188,18.3348 L 9.6192,18.0545 L 9.8196,17.7943 L 10.02,17.54 L 10.2204,17.3467 L 10.4208,17.3257 L 10.6212,17.4835 L 10.8216,17.4188 L 11.022,17.267 L 11.2224,17.0861 L 11.4228,16.9465 L 11.6232,16.6545 L 11.8236,15.9593 L 12.024,15.5036 L 12.2244,15.2171 L 12.4248,15.0653 L 12.6253,15.0017 L 12.8257,14.9938 L 13.0261,14.8808 L 13.2265,14.5999 L 13.4269,14.4245 L 13.6273,14.2676 L 13.8277,13.8341 L 14.0281,13.4022 L 14.2285,13.0085 L 14.4289,12.7546 L 14.6293,12.8377 L 14.8297,12.8139 L 15.0301,12.7565 L 15.2305,12.7077 L 15.4309,12.5622 L 15.6313,12.2526 L 15.8317,11.8599 L 16.0321,11.5624 L 16.2325,11.2776 L 16.4329,10.9584 L 16.6333,10.6079 L 16.8337,10.3111 L 17.0341,9.9292 L 17.2345,9.535 L 17.4349,9.171 L 17.6353,8.7821 L 17.8357,8.422 L 18.0361,8.0516 L 18.2365,7.5815 L 18.4369,7.1801 L 18.6373,6.7755 L 18.8377,6.4203 L 19.0381,6.0422 L 19.2385,5.614 L 19.4389,5.2139 L 19.6393,4.8471 L 19.8397,4.4227 L 20.0401,3.9038 L 20.2405,3.2296 L 20.4409,2.528 L 20.6413,1.8541 L 20.8417,0.8989 L 21.0421,0.1492 L 21.2425,0.038 L 21.4429,0 L 21.6433,0.1749 L 21.8437,0.5716 L 22.0441,0.8575 L 22.2445,1.2829 L 22.4449,1.8367 L 22.6453,2.2585 L 22.8457,2.4774 L 23.0461,2.6776 L 23.2465,3.0336 L 23.4469,3.4163 L 23.6473,3.4815 L 23.8477,3.4905 L 24.0481,3.6108 L 24.2485,3.9841 L 24.4489,4.3068 L 24.6493,4.6522 L 24.8497,4.9907 L 25.0501,5.2941 L 25.2505,5.3692 L 25.4509,5.4252 L 25.6513,5.4293 L 25.8517,5.3225 L 26.0521,5.1146 L 26.2525,5.0908 L 26.4529,5.1991 L 26.6533,5.1003 L 26.8537,4.9827 L 27.0541,4.847 L 27.2545,5.044 L 27.4549,5.3598 L 27.6553,5.7747 L 27.8557,6.023 L 28.0561,6.2195 L 28.2565,6.5631 L 28.4569,7.0061 L 28.6573,7.5616 L 28.8577,8.0882 L 29.0581,8.4736 L 29.2585,8.6807 L 29.4589,8.8799 L 29.6593,9.1513 L 29.8597,9.5115 L 30.0601,9.8466 L 30.2605,10.1079 L 30.4609,10.3031 L 30.6613,10.4043 L 30.8617,10.4916 L 31.0621,10.502 L 31.2625,10.2943 L 31.4629,10.1315 L 31.6633,9.9485 L 31.8637,9.7669 L 32.0641,9.5726 L 32.2645,9.8332 L 32.4649,10.6336 L 32.6653,11.3616 L 32.8657,11.974 L 33.0661,12.3291 L 33.2665,12.4055 L 33.4669,12.3596 L 33.6673,12.3844 L 33.8677,12.4521 L 34.0681,12.4461 L 34.2685,12.5745 L 34.4689,12.9107 L 34.6693,13.3438 L 34.8697,13.7715 L 35.0701,14.1537 L 35.2705,14.4523 L 35.4709,14.8545 L 35.6713,15.3284 L 35.8717,15.7493 L 36.0721,16.0247 L 36.2725,16.2541 L 36.4729,16.3904 L 36.6733,16.6499 L 36.8737,17.0745 L 37.0741,17.4861 L 37.2745,17.9311 L 37.4749,18.2823 L 37.6754,18.5783 L 37.8758,18.8421 L 38.0762,19.1087 L 38.2766,19.3457 L 38.477,19.5781 L 38.6774,19.7323 L 38.8778,19.8122 L 39.0782,19.8641 L 39.2786,20.0137 L 39.479,20.1414 L 39.6794,20.264 L 39.8798,20.4944 L 40.0802,20.7073 L 40.2806,21.0344 L 40.481,21.2159 L 40.6814,21.3931 L 40.8818,21.6596 L 41.0822,21.9713 L 41.2826,22.1833 L 41.483,22.3012 L 41.6834,22.4262 L 41.8838,22.5634 L 42.0842,22.697 L 42.2846,22.796 L 42.485,22.854 L 42.6854,22.9649 L 42.8858,23.1382 L 43.0862,23.3773 L 43.2866,23.3589 L 43.487,23.4131 L 43.6874,23.7974 L 43.8878,24.2582 L 44.0882,24.608 L 44.2886,24.846 L 44.489,25.3291 L 44.6894,25.7253 L 44.8898,26.0187 L 45.0902,26.23 L 45.2906,26.4102 L 45.491,26.8602 L 45.6914,27.4488 L 45.8918,27.8585 L 46.0922,28.1888 L 46.2926,28.4284 L 46.493,28.4808 L 46.6934,28.5208 L 46.8938,28.5994 L 47.0942,28.7094 L 47.2946,29.1219 L 47.495,29.4247 L 47.6954,29.7603 L 47.8958,30.2807 L 48.0962,30.4532 L 48.2966,30.5238 L 48.497,30.5192 L 48.6974,30.4199 L 48.8978,30.7889 L 49.0982,31.3189 L 49.2986,31.8605 L 49.499,32.3877 L 49.6994,32.6469 L 49.8998,32.95 L 50.1002,33.2465 L 50.3006,33.6128 L 50.501,34.0723 L 50.7014,34.3688 L 50.9018,34.6485 L 51.1022,34.7555 L 51.3026,34.729 L 51.503,34.705 L 51.7034,34.6724 L 51.9038,34.4513 L 52.1042,34.3299 L 52.3046,34.0815 L 52.505,33.8225 L 52.7054,33.4628 L 52.9058,33.177 L 53.1062,32.9948 L 53.3066,32.7107 L 53.507,32.4601 L 53.7074,32.0644 L 53.9078,31.7393 L 54.1082,31.5997 L 54.3086,31.3503 L 54.509,31.0019 L 54.7094,30.6423 L 54.9098,30.4048 L 55.1102,30.3232 L 55.3106,30.1662 L 55.511,30.0462 L 55.7114,29.9439 L 55.9118,29.7489 L 56.1122,29.5318 L 56.3126,29.3387 L 56.513,29.1978 L 56.7134,29.0533 L 56.9138,28.908 L 57.1142,28.8582 L 57.3146,28.8226 L 57.515,28.7117 L 57.7154,28.6419 L 57.9158,28.397 L 58.1162,28.0907 L 58.3166,27.9562 L 58.517,27.9057 L 58.7174,27.9238 L 58.9178,27.9938 L 59.1182,28.0247 L 59.3186,27.8879 L 59.519,27.9235 L 59.7194,27.8083 L 59.9198,27.5255 L 60.1202,27.2274 L 60.3206,26.8824 L 60.521,26.5443 L 60.7214,26.3195 L 60.9218,26.3075 L 61.1222,26.3397 L 61.3226,26.2434 L 61.523,25.9257 L 61.7234,25.6558 L 61.9238,25.4722 L 62.1242,25.2836 L 62.3246,25.0602 L 62.5251,25.0549 L 62.7255,25.0236 L 62.9259,24.8251 L 63.1263,24.5776 L 63.3267,24.3933 L 63.5271,24.2923 L 63.7275,24.2321 L 63.9279,24.145 L 64.1283,24.1319 L 64.3287,24.1073 L 64.5291,24.0666 L 64.7295,24.0611 L 64.9299,23.8721 L 65.1303,23.7698 L 65.3307,23.799 L 65.5311,23.7982 L 65.7315,23.8341 L 65.9319,23.9356 L 66.1323,24.0283 L 66.3327,24.0936 L 66.5331,24.2995 L 66.7335,24.3858 L 66.9339,24.3811 L 67.1343,24.1371 L 67.3347,23.8403 L 67.5351,23.6866 L 67.7355,23.6189 L 67.9359,23.6903 L 68.1363,23.7384 L 68.3367,23.5696 L 68.5371,23.4903 L 68.7375,23.6246 L 68.9379,23.4094 L 69.1383,23.3426 L 69.3387,23.3401 L 69.5391,23.2911 L 69.7395,23.1823 L 69.9399,23.0634 L 70.1403,22.8989 L 70.3407,22.6072 L 70.5411,22.301 L 70.7415,22.0274 L 70.9419,21.7687 L 71.1423,21.4842 L 71.3427,21.132 L 71.5431,20.7565 L 71.7435,20.3543 L 71.9439,19.9202 L 72.1443,19.5437 L 72.3447,19.1618 L 72.5451,18.7539 L 72.7455,18.204 L 72.9459,17.4441 L 73.1463,16.7516 L 73.3467,16.1794 L 73.5471,15.658 L 73.7475,15.107 L 73.9479,14.4904 L 74.1483,13.7776 L 74.3487,13.1972 L 74.5491,12.6101 L 74.7495,12.0385 L 74.9499,11.8797 L 75.1503,12.1752 L 75.3507,12.3999 L 75.5511,12.8714 L 75.7515,13.2366 L 75.9519,13.3486 L 76.1523,13.3943 L 76.3527,13.1481 L 76.5531,12.9056 L 76.7535,12.6352 L 76.9539,12.4552 L 77.1543,12.1909 L 77.3547,12.0168 L 77.5551,11.9366 L 77.7555,11.848 L 77.9559,11.8816 L 78.1563,11.8224 L 78.3567,11.7613 L 78.5571,11.6899 L 78.7575,11.608 L 78.9579,11.5565 L 79.1583,11.5204 L 79.3587,11.3012 L 79.5591,10.8961 L 79.7595,10.5094 L 79.9599,10.0675 L 80.1603,9.3745 L 80.3607,8.7891 L 80.5611,8.3254 L 80.7615,7.9428 L 80.9619,7.6657 L 81.1623,7.5696 L 81.3627,7.2456 L 81.5631,7.0396 L 81.7635,6.8896 L 81.9639,6.734 L 82.1643,6.5324 L 82.3647,6.3531 L 82.5651,6.2322 L 82.7655,6.0403 L 82.9659,5.7359 L 83.1663,5.527 L 83.3667,5.2679 L 83.5671,4.9787 L 83.7675,4.7557 L 83.9679,4.6014 L 84.1683,4.2672 L 84.3687,3.8815 L 84.5691,3.2997 L 84.7695,2.9709 L 84.9699,2.6434 L 85.1703,2.2554 L 85.3707,2.1097 L 85.5711,2.2792 L 85.7715,2.392 L 85.9719,2.2861 L 86.1723,2.1452 L 86.3727,2.2793 L 86.5731,2.2505 L 86.7735,2.2877 L 86.9739,2.6996 L 87.1743,2.8774 L 87.3747,2.5064 L 87.5752,2.0662 L 87.7756,1.7134 L 87.976,1.7995 L 88.1764,1.7798 L 88.3768,1.7864 L 88.5772,1.7837 L 88.7776,2.1357 L 88.978,2.5365 L 89.1784,2.7385 L 89.3788,2.8042 L 89.5792,3.0256 L 89.7796,3.1146 L 89.98,3.3339 L 90.1804,3.5264 L 90.3808,3.8005 L 90.5812,4.0843 L 90.7816,4.2754 L 90.982,4.3908 L 91.1824,4.6166 L 91.3828,4.9113 L 91.5832,5.1383 L 91.7836,5.4896 L 91.984,6.0396 L 92.1844,6.4184 L 92.3848,6.5932 L 92.5852,6.8969 L 92.7856,7.1015 L 92.986,7.413 L 93.1864,7.8711 L 93.3868,8.2175 L 93.5872,8.253 L 93.7876,8.4926 L 93.988,9.0223 L 94.1884,9.5044 L 94.3888,9.9259 L 94.5892,10.4003 L 94.7896,10.8956 L 94.99,11.29 L 95.1904,11.5168 L 95.3908,11.6791 L 95.5912,11.8367 L 95.7916,11.9463 L 95.992,12.1057 L 96.1924,12.2624 L 96.3928,12.4046 L 96.5932,12.593 L 96.7936,12.9441 L 96.994,13.2375 L 97.1944,13.6263 L 97.3948,14.0911 L 97.5952,14.3081 L 97.7956,14.4491 L 97.996,14.7557 L 98.1964,15.0437 L 98.3968,15.2301 L 98.5972,15.4869 L 98.7976,15.7026 L 98.998,15.8569 L 99.1984,16.0476 L 99.3988,16.1866 L 99.5992,16.2639 L 99.7996,16.3799 L 100,16.512" />
	

		<path
			style="transform: translateY(70%) scaleY(30%)"
			fill="transparent"
			stroke="currentColor"
			strokeWidth="1%"
			d="M 0,18.6044 L 0.2004,18.7989 L 0.4008,18.8907 L 0.6012,18.9489 L 0.8016,18.87 L 1.002,18.6971 L 1.2024,18.4175 L 1.4028,18.1871 L 1.6032,17.8797 L 1.8036,17.6495 L 2.004,17.3358 L 2.2044,16.8904 L 2.4048,16.3662 L 2.6052,15.8834 L 2.8056,15.6441 L 3.006,15.406 L 3.2064,15.5718 L 3.4068,15.688 L 3.6072,15.8675 L 3.8076,15.6678 L 4.008,15.5127 L 4.2084,15.3825 L 4.4088,15.3016 L 4.6092,15.2328 L 4.8096,15.1345 L 5.01,15.0961 L 5.2104,15.178 L 5.4108,15.2831 L 5.6112,15.4153 L 5.8116,15.5469 L 6.012,15.6533 L 6.2124,15.5055 L 6.4128,15.5048 L 6.6132,15.5898 L 6.8136,15.0348 L 7.014,14.6948 L 7.2144,14.5041 L 7.4148,14.3891 L 7.6152,14.3759 L 7.8156,14.5102 L 8.016,14.5769 L 8.2164,14.4524 L 8.4168,14.579 L 8.6172,14.7421 L 8.8176,14.9227 L 9.018,15.0525 L 9.2184,15.1291 L 9.4188,15.0591 L 9.6192,15.1146 L 9.8196,15.1326 L 10.02,15.2294 L 10.2204,15.3009 L 10.4208,15.2334 L 10.6212,15.2393 L 10.8216,15.2341 L 11.022,15.3776 L 11.2224,15.6326 L 11.4228,15.9027 L 11.6232,16.1374 L 11.8236,16.3419 L 12.024,16.6192 L 12.2244,16.9603 L 12.4248,17.3701 L 12.6253,17.7514 L 12.8257,18.1175 L 13.0261,18.3704 L 13.2265,18.4337 L 13.4269,18.4526 L 13.6273,18.527 L 13.8277,18.654 L 14.0281,18.7013 L 14.2285,18.7004 L 14.4289,18.6985 L 14.6293,18.6044 L 14.8297,18.1661 L 15.0301,17.6416 L 15.2305,17.1481 L 15.4309,16.7927 L 15.6313,16.2845 L 15.8317,16.15 L 16.0321,16.3707 L 16.2325,16.5814 L 16.4329,16.8086 L 16.6333,17.2316 L 16.8337,17.41 L 17.0341,17.5289 L 17.2345,17.133 L 17.4349,16.4079 L 17.6353,15.7132 L 17.8357,15.0306 L 18.0361,14.3083 L 18.2365,13.8999 L 18.4369,13.551 L 18.6373,13.1105 L 18.8377,12.6796 L 19.0381,11.8767 L 19.2385,11.4106 L 19.4389,11.0671 L 19.6393,10.7061 L 19.8397,10.3886 L 20.0401,9.9213 L 20.2405,9.4093 L 20.4409,8.8619 L 20.6413,8.4955 L 20.8417,8.1167 L 21.0421,7.8898 L 21.2425,7.6478 L 21.4429,7.2786 L 21.6433,6.9125 L 21.8437,6.5254 L 22.0441,6.0042 L 22.2445,5.4882 L 22.4449,5.0923 L 22.6453,4.7917 L 22.8457,4.4987 L 23.0461,4.2886 L 23.2465,4.1529 L 23.4469,4.035 L 23.6473,3.841 L 23.8477,3.4944 L 24.0481,3.2181 L 24.2485,2.7497 L 24.4489,2.3577 L 24.6493,1.9965 L 24.8497,1.5749 L 25.0501,1.1187 L 25.2505,0.7023 L 25.4509,0.4254 L 25.6513,0.2292 L 25.8517,0.2336 L 26.0521,0 L 26.2525,0.2427 L 26.4529,0.5339 L 26.6533,0.5629 L 26.8537,0.7822 L 27.0541,1.0835 L 27.2545,1.2984 L 27.4549,1.6967 L 27.6553,1.8606 L 27.8557,1.989 L 28.0561,2.1973 L 28.2565,2.4019 L 28.4569,2.792 L 28.6573,3.1501 L 28.8577,3.6438 L 29.0581,3.9827 L 29.2585,4.4205 L 29.4589,4.7766 L 29.6593,5.1518 L 29.8597,5.5533 L 30.0601,5.866 L 30.2605,6.0757 L 30.4609,6.1491 L 30.6613,6.3012 L 30.8617,6.6075 L 31.0621,7.1643 L 31.2625,7.4205 L 31.4629,7.7344 L 31.6633,8.0084 L 31.8637,8.1099 L 32.0641,8.3598 L 32.2645,8.4794 L 32.4649,8.5238 L 32.6653,8.6899 L 32.8657,8.9429 L 33.0661,9.2268 L 33.2665,9.5744 L 33.4669,9.9526 L 33.6673,10.3742 L 33.8677,10.8139 L 34.0681,11.1292 L 34.2685,11.4579 L 34.4689,11.6942 L 34.6693,11.8359 L 34.8697,11.9481 L 35.0701,12.1426 L 35.2705,12.3246 L 35.4709,12.3816 L 35.6713,12.4276 L 35.8717,12.5048 L 36.0721,12.8018 L 36.2725,13.167 L 36.4729,13.4571 L 36.6733,13.6983 L 36.8737,13.9223 L 37.0741,14.047 L 37.2745,14.2241 L 37.4749,14.3999 L 37.6754,14.6374 L 37.8758,14.8687 L 38.0762,15.112 L 38.2766,15.3511 L 38.477,15.4225 L 38.6774,15.4646 L 38.8778,15.4413 L 39.0782,15.3867 L 39.2786,15.3999 L 39.479,15.4194 L 39.6794,15.6055 L 39.8798,15.9863 L 40.0802,16.2537 L 40.2806,16.2555 L 40.481,16.255 L 40.6814,16.2541 L 40.8818,16.2499 L 41.0822,16.3796 L 41.2826,16.5735 L 41.483,16.9201 L 41.6834,17.2578 L 41.8838,17.7173 L 42.0842,18.1728 L 42.2846,18.363 L 42.485,18.3837 L 42.6854,18.4476 L 42.8858,18.6559 L 43.0862,18.8026 L 43.2866,19.2051 L 43.487,19.67 L 43.6874,20.3063 L 43.8878,20.8181 L 44.0882,21.2563 L 44.2886,21.7188 L 44.489,22.2722 L 44.6894,23.0013 L 44.8898,23.8615 L 45.0902,24.5655 L 45.2906,25.4248 L 45.491,26.7263 L 45.6914,27.417 L 45.8918,27.972 L 46.0922,28.5055 L 46.2926,28.8894 L 46.493,29.4642 L 46.6934,29.8846 L 46.8938,30.0918 L 47.0942,30.2984 L 47.2946,30.607 L 47.495,30.9306 L 47.6954,31.0892 L 47.8958,31.4942 L 48.0962,32.0154 L 48.2966,32.1844 L 48.497,32.1087 L 48.6974,31.7863 L 48.8978,31.4913 L 49.0982,31.173 L 49.2986,30.9603 L 49.499,30.4764 L 49.6994,30.0269 L 49.8998,29.8262 L 50.1002,29.7312 L 50.3006,29.6288 L 50.501,29.2886 L 50.7014,28.8513 L 50.9018,28.4262 L 51.1022,28.1047 L 51.3026,28.0111 L 51.503,28.0659 L 51.7034,27.9276 L 51.9038,27.831 L 52.1042,27.6615 L 52.3046,27.3394 L 52.505,27.0953 L 52.7054,26.6898 L 52.9058,26.2276 L 53.1062,25.8703 L 53.3066,25.7099 L 53.507,25.3469 L 53.7074,24.891 L 53.9078,24.452 L 54.1082,24.3238 L 54.3086,24.0066 L 54.509,23.8543 L 54.7094,23.6755 L 54.9098,23.4401 L 55.1102,23.2605 L 55.3106,23.2159 L 55.511,23.2824 L 55.7114,23.0585 L 55.9118,23.0178 L 56.1122,22.9328 L 56.3126,22.7365 L 56.513,22.577 L 56.7134,22.3846 L 56.9138,22.1933 L 57.1142,21.988 L 57.3146,21.7642 L 57.515,21.2954 L 57.7154,21.009 L 57.9158,20.8008 L 58.1162,20.4812 L 58.3166,20.2771 L 58.517,19.9884 L 58.7174,19.8612 L 58.9178,19.6244 L 59.1182,19.4771 L 59.3186,19.1527 L 59.519,18.8443 L 59.7194,18.5764 L 59.9198,18.2095 L 60.1202,17.8985 L 60.3206,18.0094 L 60.521,18.1602 L 60.7214,18.2269 L 60.9218,18.2144 L 61.1222,18.1219 L 61.3226,17.7972 L 61.523,17.5175 L 61.7234,17.287 L 61.9238,16.9391 L 62.1242,16.3314 L 62.3246,15.8742 L 62.5251,15.3801 L 62.7255,14.5055 L 62.9259,13.7868 L 63.1263,13.6726 L 63.3267,13.8776 L 63.5271,13.9311 L 63.7275,14.1382 L 63.9279,14.2482 L 64.1283,14.7214 L 64.3287,15.0064 L 64.5291,15.3555 L 64.7295,15.7377 L 64.9299,15.9926 L 65.1303,16.5719 L 65.3307,17.0588 L 65.5311,17.4928 L 65.7315,17.72 L 65.9319,17.9662 L 66.1323,18.1238 L 66.3327,18.1582 L 66.5331,18.2196 L 66.7335,18.1494 L 66.9339,17.979 L 67.1343,17.9717 L 67.3347,17.9223 L 67.5351,17.8425 L 67.7355,17.9615 L 67.9359,18.0947 L 68.1363,18.0511 L 68.3367,17.9013 L 68.5371,17.9466 L 68.7375,18.0888 L 68.9379,18.1317 L 69.1383,18.2408 L 69.3387,18.2766 L 69.5391,18.2999 L 69.7395,18.1075 L 69.9399,17.6298 L 70.1403,17.1223 L 70.3407,17.0941 L 70.5411,17.4936 L 70.7415,17.6734 L 70.9419,17.7876 L 71.1423,18.0867 L 71.3427,18.3377 L 71.5431,18.3928 L 71.7435,18.3584 L 71.9439,18.4481 L 72.1443,18.4662 L 72.3447,18.4367 L 72.5451,18.3183 L 72.7455,18.3226 L 72.9459,18.3966 L 73.1463,18.7649 L 73.3467,19.1041 L 73.5471,19.3368 L 73.7475,19.4869 L 73.9479,19.59 L 74.1483,19.8613 L 74.3487,20.0027 L 74.5491,20.1427 L 74.7495,20.1679 L 74.9499,19.9943 L 75.1503,19.8308 L 75.3507,19.5106 L 75.5511,18.9603 L 75.7515,18.0031 L 75.9519,17.4497 L 76.1523,17.2056 L 76.3527,17.1979 L 76.5531,17.366 L 76.7535,17.3803 L 76.9539,17.282 L 77.1543,17.1837 L 77.3547,16.9284 L 77.5551,16.4849 L 77.7555,15.9029 L 77.9559,15.0537 L 78.1563,14.5947 L 78.3567,14.255 L 78.5571,14.2458 L 78.7575,14.2779 L 78.9579,14.4077 L 79.1583,14.2149 L 79.3587,14.1016 L 79.5591,14.0771 L 79.7595,14.2497 L 79.9599,14.3311 L 80.1603,14.2842 L 80.3607,14.0669 L 80.5611,13.8972 L 80.7615,13.6326 L 80.9619,13.2121 L 81.1623,12.8999 L 81.3627,12.7894 L 81.5631,13.2517 L 81.7635,13.488 L 81.9639,13.773 L 82.1643,13.7409 L 82.3647,13.6369 L 82.5651,13.3167 L 82.7655,12.9082 L 82.9659,12.5244 L 83.1663,12.0829 L 83.3667,11.6471 L 83.5671,11.2172 L 83.7675,10.8211 L 83.9679,10.5488 L 84.1683,10.6048 L 84.3687,10.464 L 84.5691,10.2149 L 84.7695,9.84 L 84.9699,9.5077 L 85.1703,9.0417 L 85.3707,7.9023 L 85.5711,6.9057 L 85.7715,6.2018 L 85.9719,5.8211 L 86.1723,5.5445 L 86.3727,5.0859 L 86.5731,4.663 L 86.7735,4.4271 L 86.9739,4.2765 L 87.1743,4.281 L 87.3747,4.421 L 87.5752,4.7098 L 87.7756,4.7956 L 87.976,4.6934 L 88.1764,4.4056 L 88.3768,3.9461 L 88.5772,3.3221 L 88.7776,2.6631 L 88.978,2.0466 L 89.1784,1.7479 L 89.3788,1.8778 L 89.5792,2.4484 L 89.7796,2.9792 L 89.98,3.2135 L 90.1804,3.3079 L 90.3808,3.3772 L 90.5812,3.4647 L 90.7816,3.6987 L 90.982,4.0007 L 91.1824,4.2218 L 91.3828,4.8026 L 91.5832,5.5654 L 91.7836,6.1919 L 91.984,6.5161 L 92.1844,6.6487 L 92.3848,6.8846 L 92.5852,7.2289 L 92.7856,7.5999 L 92.986,7.8483 L 93.1864,8.0262 L 93.3868,8.2341 L 93.5872,8.4586 L 93.7876,8.6931 L 93.988,9.126 L 94.1884,9.4923 L 94.3888,9.6903 L 94.5892,9.9291 L 94.7896,10.1718 L 94.99,10.3502 L 95.1904,10.5555 L 95.3908,10.6583 L 95.5912,10.5545 L 95.7916,10.598 L 95.992,10.7527 L 96.1924,11.0172 L 96.3928,11.1649 L 96.5932,11.1717 L 96.7936,10.9218 L 96.994,10.7247 L 97.1944,10.5669 L 97.3948,10.4876 L 97.5952,10.494 L 97.7956,10.6557 L 97.996,10.7759 L 98.1964,10.8894 L 98.3968,11.1349 L 98.5972,11.4676 L 98.7976,11.8414 L 98.998,12.2097 L 99.1984,12.7753 L 99.3988,13.2589 L 99.5992,13.6689 L 99.7996,14.1108 L 100,14.511" />
	

		<path
			style="transform: translateY(60%) scaleY(30%)"
			fill="transparent"
			stroke="currentColor"
			strokeWidth="1%"
			d="M 0,5.3577 L 0.2004,4.8862 L 0.4008,4.604 L 0.6012,4.3698 L 0.8016,4.2891 L 1.002,4.8432 L 1.2024,5.4254 L 1.4028,5.9225 L 1.6032,6.5843 L 1.8036,7.1363 L 2.004,7.5237 L 2.2044,7.6744 L 2.4048,7.8013 L 2.6052,7.7363 L 2.8056,7.6293 L 3.006,7.2893 L 3.2064,7.0101 L 3.4068,6.7759 L 3.6072,6.6387 L 3.8076,6.4448 L 4.008,6.2018 L 4.2084,5.6919 L 4.4088,5.1785 L 4.6092,4.6873 L 4.8096,4.2222 L 5.01,3.7614 L 5.2104,3.1132 L 5.4108,2.4802 L 5.6112,1.9056 L 5.8116,1.2759 L 6.012,0.8652 L 6.2124,0.4215 L 6.4128,0.0625 L 6.6132,0 L 6.8136,0.3046 L 7.014,0.6342 L 7.2144,0.8416 L 7.4148,0.8766 L 7.6152,1.1747 L 7.8156,1.5748 L 8.016,1.9491 L 8.2164,2.3278 L 8.4168,2.6454 L 8.6172,2.954 L 8.8176,3.2384 L 9.018,3.4506 L 9.2184,3.6026 L 9.4188,4.3186 L 9.6192,5.0681 L 9.8196,5.5066 L 10.02,5.843 L 10.2204,6.2128 L 10.4208,6.7944 L 10.6212,7.413 L 10.8216,8.0736 L 11.022,8.5561 L 11.2224,8.977 L 11.4228,9.325 L 11.6232,9.7272 L 11.8236,10.1824 L 12.024,10.6306 L 12.2244,11.0427 L 12.4248,11.5417 L 12.6253,11.7833 L 12.8257,11.9099 L 13.0261,11.9793 L 13.2265,12.2005 L 13.4269,12.4364 L 13.6273,12.6705 L 13.8277,12.9304 L 14.0281,13.0492 L 14.2285,13.1655 L 14.4289,13.3023 L 14.6293,13.6448 L 14.8297,14.1419 L 15.0301,14.1095 L 15.2305,14.09 L 15.4309,14.1488 L 15.6313,14.391 L 15.8317,14.6852 L 16.0321,14.7512 L 16.2325,14.9454 L 16.4329,14.8606 L 16.6333,14.7756 L 16.8337,15.0315 L 17.0341,15.1938 L 17.2345,14.9211 L 17.4349,14.5184 L 17.6353,14.4853 L 17.8357,14.6106 L 18.0361,14.5118 L 18.2365,14.2285 L 18.4369,14.0876 L 18.6373,14.0393 L 18.8377,13.859 L 19.0381,13.5076 L 19.2385,12.9397 L 19.4389,12.3618 L 19.6393,11.5332 L 19.8397,10.9334 L 20.0401,10.5803 L 20.2405,10.1935 L 20.4409,9.6997 L 20.6413,8.9826 L 20.8417,8.2162 L 21.0421,8.0016 L 21.2425,7.9949 L 21.4429,8.0076 L 21.6433,8.1337 L 21.8437,8.179 L 22.0441,8.2088 L 22.2445,8.3042 L 22.4449,8.4311 L 22.6453,8.4291 L 22.8457,8.0255 L 23.0461,7.6353 L 23.2465,7.5425 L 23.4469,7.526 L 23.6473,7.5213 L 23.8477,7.4446 L 24.0481,7.4005 L 24.2485,7.1497 L 24.4489,6.5431 L 24.6493,5.8402 L 24.8497,5.2018 L 25.0501,4.8509 L 25.2505,4.8069 L 25.4509,4.8609 L 25.6513,4.9443 L 25.8517,4.9829 L 26.0521,4.9951 L 26.2525,4.7866 L 26.4529,4.453 L 26.6533,4.0622 L 26.8537,3.5314 L 27.0541,2.9819 L 27.2545,2.6264 L 27.4549,2.4633 L 27.6553,2.7038 L 27.8557,3.3016 L 28.0561,3.8364 L 28.2565,4.3466 L 28.4569,4.8165 L 28.6573,5.2691 L 28.8577,5.6652 L 29.0581,5.9542 L 29.2585,6.1501 L 29.4589,6.2802 L 29.6593,6.3978 L 29.8597,6.6291 L 30.0601,6.7925 L 30.2605,6.9863 L 30.4609,7.2248 L 30.6613,7.4995 L 30.8617,7.6343 L 31.0621,7.8792 L 31.2625,8.1311 L 31.4629,8.2883 L 31.6633,8.3781 L 31.8637,8.4756 L 32.0641,8.9228 L 32.2645,9.4789 L 32.4649,9.9835 L 32.6653,10.3521 L 32.8657,10.4757 L 33.0661,10.5067 L 33.2665,10.6562 L 33.4669,10.805 L 33.6673,11.0249 L 33.8677,11.2877 L 34.0681,11.4536 L 34.2685,11.5827 L 34.4689,11.5878 L 34.6693,11.6347 L 34.8697,11.7153 L 35.0701,11.8319 L 35.2705,12.0069 L 35.4709,12.1935 L 35.6713,12.3752 L 35.8717,12.3817 L 36.0721,12.5437 L 36.2725,12.5701 L 36.4729,12.7032 L 36.6733,12.6361 L 36.8737,12.4842 L 37.0741,12.4658 L 37.2745,12.7674 L 37.4749,13.0405 L 37.6754,13.4231 L 37.8758,13.6083 L 38.0762,13.7784 L 38.2766,13.8651 L 38.477,13.9613 L 38.6774,14.1455 L 38.8778,14.5302 L 39.0782,15.0864 L 39.2786,15.8194 L 39.479,16.3159 L 39.6794,16.7863 L 39.8798,17.3258 L 40.0802,17.9592 L 40.2806,18.5331 L 40.481,18.9922 L 40.6814,19.3771 L 40.8818,19.7442 L 41.0822,20.0669 L 41.2826,20.2847 L 41.483,20.4974 L 41.6834,20.6415 L 41.8838,20.7941 L 42.0842,21.0916 L 42.2846,21.588 L 42.485,22.1338 L 42.6854,22.6178 L 42.8858,23.28 L 43.0862,23.6481 L 43.2866,24.1673 L 43.487,24.6406 L 43.6874,24.9319 L 43.8878,25.0879 L 44.0882,25.1845 L 44.2886,25.2863 L 44.489,25.2632 L 44.6894,25.2676 L 44.8898,25.3047 L 45.0902,25.6617 L 45.2906,25.8282 L 45.491,25.6555 L 45.6914,25.5295 L 45.8918,25.4673 L 46.0922,25.4959 L 46.2926,25.5703 L 46.493,25.7145 L 46.6934,26.1583 L 46.8938,26.413 L 47.0942,26.5517 L 47.2946,26.697 L 47.495,26.8461 L 47.6954,27.0426 L 47.8958,27.0476 L 48.0962,27.111 L 48.2966,27.2602 L 48.497,27.4528 L 48.6974,27.5758 L 48.8978,27.5908 L 49.0982,27.6316 L 49.2986,27.4833 L 49.499,27.4093 L 49.6994,27.4468 L 49.8998,27.621 L 50.1002,27.4769 L 50.3006,27.3834 L 50.501,27.2848 L 50.7014,27.1468 L 50.9018,26.974 L 51.1022,26.785 L 51.3026,26.5768 L 51.503,26.4522 L 51.7034,26.2987 L 51.9038,26.1166 L 52.1042,25.8115 L 52.3046,25.5518 L 52.505,25.3363 L 52.7054,25.0488 L 52.9058,24.8558 L 53.1062,24.5681 L 53.3066,24.1044 L 53.507,23.7162 L 53.7074,23.4167 L 53.9078,23.0379 L 54.1082,22.8774 L 54.3086,22.6643 L 54.509,22.4078 L 54.7094,22.0104 L 54.9098,21.5363 L 55.1102,21.1911 L 55.3106,21.0759 L 55.511,20.5828 L 55.7114,20.1318 L 55.9118,19.7758 L 56.1122,19.4864 L 56.3126,19.2762 L 56.513,19.227 L 56.7134,19.1621 L 56.9138,18.9419 L 57.1142,18.7344 L 57.3146,18.5083 L 57.515,18.2613 L 57.7154,17.8814 L 57.9158,17.4718 L 58.1162,17.2173 L 58.3166,16.8872 L 58.517,16.5287 L 58.7174,16.173 L 58.9178,16.0621 L 59.1182,15.7234 L 59.3186,15.4326 L 59.519,15.3257 L 59.7194,14.8791 L 59.9198,14.4142 L 60.1202,14.0084 L 60.3206,13.6528 L 60.521,13.3995 L 60.7214,13.1093 L 60.9218,12.8393 L 61.1222,12.6473 L 61.3226,12.5198 L 61.523,12.3376 L 61.7234,12.0034 L 61.9238,11.5362 L 62.1242,11.1464 L 62.3246,10.8321 L 62.5251,10.5791 L 62.7255,10.3622 L 62.9259,10.0793 L 63.1263,9.7773 L 63.3267,9.4711 L 63.5271,9.1887 L 63.7275,8.9828 L 63.9279,8.7278 L 64.1283,8.4696 L 64.3287,8.2873 L 64.5291,8.074 L 64.7295,7.6025 L 64.9299,7.0668 L 65.1303,6.6625 L 65.3307,6.1134 L 65.5311,5.5355 L 65.7315,5.4457 L 65.9319,5.457 L 66.1323,5.9127 L 66.3327,6.4216 L 66.5331,7.2164 L 66.7335,7.8 L 66.9339,8.2532 L 67.1343,8.6871 L 67.3347,8.8386 L 67.5351,8.9569 L 67.7355,8.85 L 67.9359,8.9024 L 68.1363,8.9089 L 68.3367,8.9403 L 68.5371,8.9305 L 68.7375,9.0143 L 68.9379,9.0532 L 69.1383,8.9888 L 69.3387,8.9078 L 69.5391,8.8276 L 69.7395,8.6652 L 69.9399,8.4513 L 70.1403,8.5997 L 70.3407,9.074 L 70.5411,9.5867 L 70.7415,9.7897 L 70.9419,9.9305 L 71.1423,10.1406 L 71.3427,10.3089 L 71.5431,10.5052 L 71.7435,10.6665 L 71.9439,10.8622 L 72.1443,11.0675 L 72.3447,11.3559 L 72.5451,11.6362 L 72.7455,12.0079 L 72.9459,12.1119 L 73.1463,11.837 L 73.3467,11.7365 L 73.5471,11.5906 L 73.7475,11.3923 L 73.9479,11.4296 L 74.1483,11.5555 L 74.3487,11.8595 L 74.5491,12.3244 L 74.7495,12.8041 L 74.9499,13.2905 L 75.1503,13.7824 L 75.3507,14.1002 L 75.5511,14.2293 L 75.7515,14.2222 L 75.9519,14.3517 L 76.1523,14.5513 L 76.3527,14.6511 L 76.5531,15.3573 L 76.7535,15.7677 L 76.9539,16.1265 L 77.1543,16.4409 L 77.3547,16.4113 L 77.5551,16.3228 L 77.7555,16.4533 L 77.9559,16.5751 L 78.1563,16.393 L 78.3567,16.1152 L 78.5571,15.692 L 78.7575,15.4785 L 78.9579,15.2895 L 79.1583,14.9919 L 79.3587,14.663 L 79.5591,14.2379 L 79.7595,13.9711 L 79.9599,13.7611 L 80.1603,13.6971 L 80.3607,13.7359 L 80.5611,13.5752 L 80.7615,13.433 L 80.9619,13.246 L 81.1623,12.8294 L 81.3627,12.9457 L 81.5631,13.1624 L 81.7635,13.3703 L 81.9639,13.2654 L 82.1643,13.1523 L 82.3647,13.1219 L 82.5651,13.2943 L 82.7655,13.4324 L 82.9659,13.2928 L 83.1663,13.0575 L 83.3667,12.7183 L 83.5671,12.31 L 83.7675,11.8756 L 83.9679,11.9178 L 84.1683,11.8272 L 84.3687,11.5472 L 84.5691,11.6402 L 84.7695,11.7042 L 84.9699,11.6661 L 85.1703,11.5911 L 85.3707,11.4724 L 85.5711,11.3977 L 85.7715,11.2302 L 85.9719,10.9148 L 86.1723,10.5626 L 86.3727,10.4456 L 86.5731,10.1745 L 86.7735,9.8485 L 86.9739,9.3689 L 87.1743,9.141 L 87.3747,9.1996 L 87.5752,8.8912 L 87.7756,8.7354 L 87.976,8.8445 L 88.1764,8.8041 L 88.3768,8.6557 L 88.5772,8.7068 L 88.7776,8.9882 L 88.978,8.9887 L 89.1784,8.9951 L 89.3788,9.034 L 89.5792,8.8993 L 89.7796,8.6294 L 89.98,8.3858 L 90.1804,8.404 L 90.3808,8.3204 L 90.5812,8.1357 L 90.7816,7.9771 L 90.982,7.731 L 91.1824,7.4509 L 91.3828,7.2566 L 91.5832,7.082 L 91.7836,6.9276 L 91.984,6.743 L 92.1844,6.5526 L 92.3848,6.1813 L 92.5852,5.6473 L 92.7856,5.5895 L 92.986,6.0359 L 93.1864,6.2308 L 93.3868,5.9643 L 93.5872,6.1685 L 93.7876,6.5975 L 93.988,7.0333 L 94.1884,7.4085 L 94.3888,7.8095 L 94.5892,8.2179 L 94.7896,8.5653 L 94.99,8.8794 L 95.1904,9.2714 L 95.3908,9.7245 L 95.5912,10.1764 L 95.7916,10.5679 L 95.992,10.8908 L 96.1924,11.3963 L 96.3928,11.9915 L 96.5932,12.6193 L 96.7936,13.2614 L 96.994,13.7336 L 97.1944,14.1037 L 97.3948,14.5022 L 97.5952,14.8661 L 97.7956,15.1633 L 97.996,15.4861 L 98.1964,15.6934 L 98.3968,15.8413 L 98.5972,16.0211 L 98.7976,16.294 L 98.998,16.5904 L 99.1984,16.7664 L 99.3988,16.8577 L 99.5992,16.9133 L 99.7996,17.0723 L 100,17.169" />
	

		<path
			style="transform: translateY(50%) scaleY(30%)"
			fill="transparent"
			stroke="currentColor"
			strokeWidth="1%"
			d="M 0,23.4722 L 0.2004,23.313 L 0.4008,23.1814 L 0.6012,23.0357 L 0.8016,22.8704 L 1.002,22.7283 L 1.2024,22.7693 L 1.4028,22.9267 L 1.6032,23.077 L 1.8036,22.734 L 2.004,22.4553 L 2.2044,22.3249 L 2.4048,22.1772 L 2.6052,21.9878 L 2.8056,22.0072 L 3.006,21.8186 L 3.2064,21.8228 L 3.4068,21.716 L 3.6072,21.5316 L 3.8076,21.4462 L 4.008,21.414 L 4.2084,21.2999 L 4.4088,21.1944 L 4.6092,21.0659 L 4.8096,20.9279 L 5.01,20.7977 L 5.2104,20.5591 L 5.4108,20.2191 L 5.6112,19.8848 L 5.8116,19.6634 L 6.012,19.3483 L 6.2124,18.913 L 6.4128,18.4438 L 6.6132,17.8854 L 6.8136,17.3315 L 7.014,16.7724 L 7.2144,16.1985 L 7.4148,15.7013 L 7.6152,15.2542 L 7.8156,14.7656 L 8.016,14.2977 L 8.2164,13.8337 L 8.4168,13.3063 L 8.6172,12.6997 L 8.8176,12.0431 L 9.018,11.5711 L 9.2184,10.9973 L 9.4188,10.492 L 9.6192,9.9971 L 9.8196,9.3241 L 10.02,8.5765 L 10.2204,8.0227 L 10.4208,7.4246 L 10.6212,6.8313 L 10.8216,6.2299 L 11.022,5.6471 L 11.2224,5.1245 L 11.4228,4.6418 L 11.6232,4.2412 L 11.8236,3.871 L 12.024,3.5342 L 12.2244,3.3345 L 12.4248,3.3166 L 12.6253,3.7138 L 12.8257,4.2382 L 13.0261,4.7476 L 13.2265,5.1669 L 13.4269,5.5482 L 13.6273,5.9779 L 13.8277,6.2522 L 14.0281,6.5647 L 14.2285,7.1154 L 14.4289,7.6648 L 14.6293,8.2444 L 14.8297,8.8402 L 15.0301,9.3198 L 15.2305,9.6276 L 15.4309,9.8911 L 15.6313,10.2652 L 15.8317,10.6382 L 16.0321,10.8754 L 16.2325,10.9014 L 16.4329,11.0908 L 16.6333,11.3537 L 16.8337,11.6517 L 17.0341,11.7304 L 17.2345,11.8589 L 17.4349,11.7798 L 17.6353,11.5341 L 17.8357,11.1544 L 18.0361,10.9959 L 18.2365,11.0718 L 18.4369,11.2124 L 18.6373,11.2893 L 18.8377,11.2495 L 19.0381,11.123 L 19.2385,10.9986 L 19.4389,10.7759 L 19.6393,10.4222 L 19.8397,9.9483 L 20.0401,9.1324 L 20.2405,8.3313 L 20.4409,7.8075 L 20.6413,7.1994 L 20.8417,6.5627 L 21.0421,5.8859 L 21.2425,5.3085 L 21.4429,4.5432 L 21.6433,3.6258 L 21.8437,3.106 L 22.0441,2.7829 L 22.2445,2.5468 L 22.4449,2.4239 L 22.6453,2.9019 L 22.8457,3.4586 L 23.0461,3.9887 L 23.2465,4.542 L 23.4469,5.0605 L 23.6473,5.5485 L 23.8477,5.9447 L 24.0481,6.1824 L 24.2485,6.3382 L 24.4489,6.6779 L 24.6493,6.9697 L 24.8497,7.3505 L 25.0501,7.7907 L 25.2505,8.0912 L 25.4509,8.3567 L 25.6513,8.7508 L 25.8517,9.0488 L 26.0521,9.3223 L 26.2525,9.7698 L 26.4529,10.3605 L 26.6533,10.8651 L 26.8537,11.3208 L 27.0541,11.6149 L 27.2545,11.6747 L 27.4549,11.6851 L 27.6553,11.776 L 27.8557,12.0379 L 28.0561,12.2472 L 28.2565,12.4474 L 28.4569,12.6084 L 28.6573,12.6918 L 28.8577,12.7373 L 29.0581,12.7569 L 29.2585,12.9496 L 29.4589,13.0647 L 29.6593,13.1745 L 29.8597,13.2068 L 30.0601,13.2957 L 30.2605,13.4155 L 30.4609,13.4918 L 30.6613,13.5349 L 30.8617,13.5084 L 31.0621,13.4765 L 31.2625,13.3815 L 31.4629,13.7188 L 31.6633,14.2088 L 31.8637,14.6527 L 32.0641,14.9352 L 32.2645,15.1198 L 32.4649,15.38 L 32.6653,15.6263 L 32.8657,15.8312 L 33.0661,16.0686 L 33.2665,16.3543 L 33.4669,16.6812 L 33.6673,16.9748 L 33.8677,17.1944 L 34.0681,17.3818 L 34.2685,17.5802 L 34.4689,17.7608 L 34.6693,17.9047 L 34.8697,18.0683 L 35.0701,18.2687 L 35.2705,18.5278 L 35.4709,18.8114 L 35.6713,19.1511 L 35.8717,19.4479 L 36.0721,19.7193 L 36.2725,19.9851 L 36.4729,20.2882 L 36.6733,20.5359 L 36.8737,20.7913 L 37.0741,21.1891 L 37.2745,21.5576 L 37.4749,22.08 L 37.6754,22.4732 L 37.8758,22.6601 L 38.0762,22.8343 L 38.2766,23.0592 L 38.477,23.1919 L 38.6774,23.3113 L 38.8778,23.4077 L 39.0782,23.5361 L 39.2786,23.5845 L 39.479,23.6106 L 39.6794,23.7536 L 39.8798,23.9604 L 40.0802,24.1983 L 40.2806,24.3477 L 40.481,24.5406 L 40.6814,24.6698 L 40.8818,24.879 L 41.0822,25.0516 L 41.2826,25.162 L 41.483,25.1954 L 41.6834,25.2455 L 41.8838,25.2614 L 42.0842,25.2819 L 42.2846,25.2916 L 42.485,25.2477 L 42.6854,25.217 L 42.8858,25.146 L 43.0862,25.0934 L 43.2866,24.9461 L 43.487,24.6533 L 43.6874,24.4648 L 43.8878,24.3264 L 44.0882,24.0413 L 44.2886,23.8462 L 44.489,23.6334 L 44.6894,23.3849 L 44.8898,23.1306 L 45.0902,22.7808 L 45.2906,22.5979 L 45.491,22.5407 L 45.6914,22.5944 L 45.8918,22.5686 L 46.0922,22.4603 L 46.2926,22.2841 L 46.493,22.1268 L 46.6934,21.975 L 46.8938,21.7866 L 47.0942,21.6816 L 47.2946,21.6498 L 47.495,21.4766 L 47.6954,21.2518 L 47.8958,21.07 L 48.0962,21.0107 L 48.2966,20.9405 L 48.497,20.9421 L 48.6974,20.9419 L 48.8978,20.9422 L 49.0982,20.9431 L 49.2986,20.9141 L 49.499,20.7068 L 49.6994,20.308 L 49.8998,20.2328 L 50.1002,20.3478 L 50.3006,20.392 L 50.501,20.5379 L 50.7014,20.6867 L 50.9018,20.717 L 51.1022,20.7448 L 51.3026,20.7515 L 51.503,20.6468 L 51.7034,20.6452 L 51.9038,20.861 L 52.1042,20.9116 L 52.3046,20.787 L 52.505,20.6343 L 52.7054,20.5857 L 52.9058,20.5284 L 53.1062,20.473 L 53.3066,20.4468 L 53.507,20.4546 L 53.7074,20.4769 L 53.9078,20.3723 L 54.1082,20.2019 L 54.3086,19.9868 L 54.509,19.7951 L 54.7094,19.5987 L 54.9098,19.4048 L 55.1102,19.2032 L 55.3106,19.0427 L 55.511,18.8686 L 55.7114,18.8119 L 55.9118,18.8201 L 56.1122,18.8752 L 56.3126,18.8815 L 56.513,18.7917 L 56.7134,18.957 L 56.9138,19.3679 L 57.1142,19.7313 L 57.3146,19.9826 L 57.515,20.0543 L 57.7154,20.0454 L 57.9158,20.0716 L 58.1162,20.0679 L 58.3166,20.3628 L 58.517,20.8279 L 58.7174,21.2711 L 58.9178,21.5941 L 59.1182,21.8933 L 59.3186,21.9712 L 59.519,22.1515 L 59.7194,22.3283 L 59.9198,22.4678 L 60.1202,22.4755 L 60.3206,22.4595 L 60.521,22.2836 L 60.7214,22.1104 L 60.9218,21.9287 L 61.1222,22.0155 L 61.3226,21.9379 L 61.523,21.7851 L 61.7234,21.9371 L 61.9238,21.872 L 62.1242,21.7428 L 62.3246,21.4226 L 62.5251,21.1235 L 62.7255,20.6645 L 62.9259,20.0493 L 63.1263,19.4037 L 63.3267,19.1033 L 63.5271,19.0184 L 63.7275,18.9062 L 63.9279,18.8067 L 64.1283,18.5895 L 64.3287,18.3565 L 64.5291,18.0729 L 64.7295,17.8225 L 64.9299,17.7146 L 65.1303,17.457 L 65.3307,17.1051 L 65.5311,16.694 L 65.7315,16.5245 L 65.9319,16.2479 L 66.1323,15.8648 L 66.3327,15.3317 L 66.5331,14.8083 L 66.7335,14.2802 L 66.9339,14.0346 L 67.1343,13.8422 L 67.3347,13.5271 L 67.5351,13.1911 L 67.7355,12.8556 L 67.9359,12.2984 L 68.1363,11.7302 L 68.3367,11.3502 L 68.5371,11.0451 L 68.7375,10.7672 L 68.9379,10.4362 L 69.1383,9.9911 L 69.3387,9.5196 L 69.5391,9.1557 L 69.7395,8.9426 L 69.9399,8.744 L 70.1403,8.4711 L 70.3407,8.3116 L 70.5411,8.2892 L 70.7415,8.3138 L 70.9419,8.2684 L 71.1423,8.4484 L 71.3427,8.1595 L 71.5431,7.7107 L 71.7435,7.1993 L 71.9439,6.5408 L 72.1443,5.9008 L 72.3447,5.1387 L 72.5451,4.6477 L 72.7455,4.5813 L 72.9459,4.4865 L 73.1463,4.3356 L 73.3467,4.1166 L 73.5471,3.9114 L 73.7475,4.3007 L 73.9479,4.6936 L 74.1483,4.9384 L 74.3487,5.1519 L 74.5491,4.9169 L 74.7495,4.2896 L 74.9499,3.7796 L 75.1503,3.3505 L 75.3507,3.19 L 75.5511,3.2151 L 75.7515,3.6249 L 75.9519,4.1585 L 76.1523,4.5779 L 76.3527,4.9401 L 76.5531,5.28 L 76.7535,5.4503 L 76.9539,5.4546 L 77.1543,5.2808 L 77.3547,5.222 L 77.5551,5.1806 L 77.7555,5.2981 L 77.9559,5.6136 L 78.1563,6.0729 L 78.3567,6.5503 L 78.5571,7.0516 L 78.7575,7.6108 L 78.9579,7.7722 L 79.1583,7.8742 L 79.3587,8.1347 L 79.5591,8.2978 L 79.7595,8.3451 L 79.9599,8.6355 L 80.1603,9.2933 L 80.3607,10.0411 L 80.5611,10.4964 L 80.7615,10.6872 L 80.9619,10.704 L 81.1623,10.636 L 81.3627,10.5453 L 81.5631,10.421 L 81.7635,10.3683 L 81.9639,10.3389 L 82.1643,10.1864 L 82.3647,10.0295 L 82.5651,9.9761 L 82.7655,9.9715 L 82.9659,10.1477 L 83.1663,10.3334 L 83.3667,10.4984 L 83.5671,10.4281 L 83.7675,10.3671 L 83.9679,10.3136 L 84.1683,10.0878 L 84.3687,9.7482 L 84.5691,9.5545 L 84.7695,9.4416 L 84.9699,9.1136 L 85.1703,8.7508 L 85.3707,8.5575 L 85.5711,8.498 L 85.7715,8.2877 L 85.9719,7.9742 L 86.1723,7.5364 L 86.3727,6.9877 L 86.5731,6.3627 L 86.7735,5.9459 L 86.9739,5.3489 L 87.1743,4.7034 L 87.3747,4.2353 L 87.5752,3.9738 L 87.7756,3.7554 L 87.976,3.4633 L 88.1764,3.328 L 88.3768,3.3269 L 88.5772,3.3406 L 88.7776,3.3238 L 88.978,3.3524 L 89.1784,3.272 L 89.3788,3.1374 L 89.5792,3.0289 L 89.7796,2.9317 L 89.98,2.9197 L 90.1804,3.1066 L 90.3808,3.3732 L 90.5812,3.1402 L 90.7816,3.2923 L 90.982,3.2941 L 91.1824,3.1925 L 91.3828,2.8656 L 91.5832,2.504 L 91.7836,2.0516 L 91.984,1.3997 L 92.1844,0.6475 L 92.3848,0.0835 L 92.5852,0 L 92.7856,0.1997 L 92.986,0.4912 L 93.1864,0.7683 L 93.3868,0.9958 L 93.5872,1.2418 L 93.7876,1.4991 L 93.988,1.7573 L 94.1884,1.8805 L 94.3888,2.1418 L 94.5892,2.6188 L 94.7896,3.2389 L 94.99,4.1958 L 95.1904,4.809 L 95.3908,5.175 L 95.5912,5.6796 L 95.7916,6.4108 L 95.992,6.9815 L 96.1924,7.3128 L 96.3928,7.5581 L 96.5932,7.799 L 96.7936,8.087 L 96.994,8.3434 L 97.1944,8.6419 L 97.3948,8.9796 L 97.5952,9.4013 L 97.7956,9.7392 L 97.996,9.9963 L 98.1964,10.3152 L 98.3968,10.6726 L 98.5972,10.9695 L 98.7976,11.2792 L 98.998,11.6048 L 99.1984,11.7958 L 99.3988,12.0309 L 99.5992,12.346 L 99.7996,12.5318 L 100,12.6433" />
	

		<path
			style="transform: translateY(40%) scaleY(30%)"
			fill="transparent"
			stroke="currentColor"
			strokeWidth="1%"
			d="M 0,19.3059 L 0.2004,19.2768 L 0.4008,19.2776 L 0.6012,19.1319 L 0.8016,18.9458 L 1.002,18.8094 L 1.2024,18.6786 L 1.4028,18.5471 L 1.6032,18.2904 L 1.8036,18.7275 L 2.004,18.5031 L 2.2044,18.3914 L 2.4048,18.2345 L 2.6052,18.2587 L 2.8056,18.3481 L 3.006,18.4461 L 3.2064,18.6231 L 3.4068,18.8623 L 3.6072,19.2171 L 3.8076,19.7312 L 4.008,20.028 L 4.2084,20.2602 L 4.4088,20.588 L 4.6092,21.1398 L 4.8096,21.4029 L 5.01,21.8448 L 5.2104,22.0776 L 5.4108,22.6426 L 5.6112,22.6861 L 5.8116,22.6796 L 6.012,22.6289 L 6.2124,22.5668 L 6.4128,22.4412 L 6.6132,22.2774 L 6.8136,22.0829 L 7.014,21.8999 L 7.2144,21.6819 L 7.4148,21.413 L 7.6152,21.0846 L 7.8156,20.7738 L 8.016,20.4655 L 8.2164,20.2447 L 8.4168,20.1314 L 8.6172,20.1279 L 8.8176,20.1733 L 9.018,20.2017 L 9.2184,20.0847 L 9.4188,19.8472 L 9.6192,19.6361 L 9.8196,19.4188 L 10.02,19.2203 L 10.2204,19.0377 L 10.4208,18.8029 L 10.6212,18.78 L 10.8216,18.813 L 11.022,18.8114 L 11.2224,18.7799 L 11.4228,18.7257 L 11.6232,18.5564 L 11.8236,18.4659 L 12.024,18.4343 L 12.2244,18.3537 L 12.4248,18.2726 L 12.6253,18.1512 L 12.8257,18.0537 L 13.0261,17.9402 L 13.2265,17.7018 L 13.4269,17.387 L 13.6273,17.0692 L 13.8277,16.6568 L 14.0281,16.2849 L 14.2285,16.0856 L 14.4289,15.9493 L 14.6293,15.7109 L 14.8297,15.3757 L 15.0301,14.5057 L 15.2305,13.614 L 15.4309,13.2284 L 15.6313,12.8468 L 15.8317,12.435 L 16.0321,11.9861 L 16.2325,11.374 L 16.4329,10.8789 L 16.6333,10.4312 L 16.8337,9.8997 L 17.0341,9.3508 L 17.2345,8.7242 L 17.4349,8.1384 L 17.6353,7.5265 L 17.8357,6.954 L 18.0361,6.8433 L 18.2365,7.2228 L 18.4369,7.6399 L 18.6373,7.8701 L 18.8377,8.0099 L 19.0381,8.1873 L 19.2385,8.2 L 19.4389,8.1957 L 19.6393,8.2066 L 19.8397,8.0033 L 20.0401,7.5558 L 20.2405,7.0091 L 20.4409,6.292 L 20.6413,5.7522 L 20.8417,4.91 L 21.0421,4.564 L 21.2425,4.2374 L 21.4429,3.9185 L 21.6433,3.6332 L 21.8437,3.3905 L 22.0441,3.2049 L 22.2445,3.2982 L 22.4449,3.833 L 22.6453,4.4765 L 22.8457,5.136 L 23.0461,5.7157 L 23.2465,6.1415 L 23.4469,6.5247 L 23.6473,6.8481 L 23.8477,7.1357 L 24.0481,7.3796 L 24.2485,7.4317 L 24.4489,7.3522 L 24.6493,7.134 L 24.8497,6.8191 L 25.0501,6.6435 L 25.2505,6.4735 L 25.4509,6.4572 L 25.6513,6.2824 L 25.8517,5.8997 L 26.0521,5.5942 L 26.2525,5.2588 L 26.4529,4.6783 L 26.6533,4.5469 L 26.8537,4.5462 L 27.0541,4.6792 L 27.2545,4.8602 L 27.4549,5.0414 L 27.6553,5.2465 L 27.8557,5.486 L 28.0561,5.7464 L 28.2565,6.1414 L 28.4569,6.8385 L 28.6573,7.6133 L 28.8577,8.1107 L 29.0581,8.5242 L 29.2585,8.9131 L 29.4589,9.2494 L 29.6593,9.6036 L 29.8597,9.8763 L 30.0601,10.1743 L 30.2605,10.5302 L 30.4609,10.8811 L 30.6613,11.2646 L 30.8617,11.6053 L 31.0621,11.9997 L 31.2625,12.4507 L 31.4629,12.8586 L 31.6633,13.3476 L 31.8637,13.88 L 32.0641,14.1891 L 32.2645,14.3267 L 32.4649,14.4463 L 32.6653,14.5545 L 32.8657,14.6594 L 33.0661,14.8802 L 33.2665,15.2879 L 33.4669,15.6818 L 33.6673,16.097 L 33.8677,16.4149 L 34.0681,16.6288 L 34.2685,16.8091 L 34.4689,17.0495 L 34.6693,17.2219 L 34.8697,17.3574 L 35.0701,17.6949 L 35.2705,18.0042 L 35.4709,18.3757 L 35.6713,18.6397 L 35.8717,18.7247 L 36.0721,18.7921 L 36.2725,19.0694 L 36.4729,19.2413 L 36.6733,19.3443 L 36.8737,19.3998 L 37.0741,19.3441 L 37.2745,19.2197 L 37.4749,19.0761 L 37.6754,19.0927 L 37.8758,19.2317 L 38.0762,19.2318 L 38.2766,19.2391 L 38.477,19.2336 L 38.6774,19.0927 L 38.8778,18.903 L 39.0782,18.8501 L 39.2786,18.9045 L 39.479,18.9868 L 39.6794,19.0596 L 39.8798,19.167 L 40.0802,19.3238 L 40.2806,19.3826 L 40.481,19.5457 L 40.6814,19.7678 L 40.8818,19.7321 L 41.0822,19.8141 L 41.2826,19.8804 L 41.483,19.9034 L 41.6834,19.8556 L 41.8838,20.0165 L 42.0842,20.2786 L 42.2846,20.3399 L 42.485,20.3812 L 42.6854,20.3239 L 42.8858,20.4088 L 43.0862,20.4708 L 43.2866,20.5652 L 43.487,20.6865 L 43.6874,20.8093 L 43.8878,20.8205 L 44.0882,20.6484 L 44.2886,20.5868 L 44.489,20.6571 L 44.6894,20.8247 L 44.8898,21.0413 L 45.0902,21.3617 L 45.2906,21.6364 L 45.491,21.9751 L 45.6914,22.181 L 45.8918,22.33 L 46.0922,22.4819 L 46.2926,22.4955 L 46.493,22.5388 L 46.6934,22.583 L 46.8938,22.8705 L 47.0942,23.2205 L 47.2946,23.5071 L 47.495,23.8126 L 47.6954,23.9657 L 47.8958,24.0233 L 48.0962,24.1887 L 48.2966,24.0537 L 48.497,23.8047 L 48.6974,23.7965 L 48.8978,23.741 L 49.0982,23.5533 L 49.2986,23.4067 L 49.499,23.1524 L 49.6994,23.0035 L 49.8998,23.037 L 50.1002,23.2242 L 50.3006,23.2998 L 50.501,23.1915 L 50.7014,22.9285 L 50.9018,22.7117 L 51.1022,22.5213 L 51.3026,22.2728 L 51.503,21.9939 L 51.7034,21.6533 L 51.9038,21.437 L 52.1042,21.1759 L 52.3046,20.9769 L 52.505,20.8328 L 52.7054,20.7118 L 52.9058,20.6026 L 53.1062,20.4544 L 53.3066,20.3101 L 53.507,19.9318 L 53.7074,19.4383 L 53.9078,18.9846 L 54.1082,18.4564 L 54.3086,17.9181 L 54.509,17.4168 L 54.7094,16.9815 L 54.9098,16.7772 L 55.1102,16.9092 L 55.3106,17.3397 L 55.511,17.5632 L 55.7114,17.6767 L 55.9118,17.9181 L 56.1122,17.9275 L 56.3126,17.993 L 56.513,18.2222 L 56.7134,18.3703 L 56.9138,18.3901 L 57.1142,18.3087 L 57.3146,18.105 L 57.515,17.9406 L 57.7154,17.8729 L 57.9158,17.9259 L 58.1162,18.0311 L 58.3166,18.0516 L 58.517,17.9587 L 58.7174,17.9427 L 58.9178,17.9468 L 59.1182,18.0773 L 59.3186,18.0197 L 59.519,17.9306 L 59.7194,17.8131 L 59.9198,17.6411 L 60.1202,17.4323 L 60.3206,17.1998 L 60.521,17.0224 L 60.7214,16.9709 L 60.9218,16.875 L 61.1222,16.7124 L 61.3226,16.6025 L 61.523,16.579 L 61.7234,16.4277 L 61.9238,15.9996 L 62.1242,15.7852 L 62.3246,15.6363 L 62.5251,15.6627 L 62.7255,15.5963 L 62.9259,15.3475 L 63.1263,15.04 L 63.3267,14.8603 L 63.5271,14.7448 L 63.7275,14.5518 L 63.9279,13.9413 L 64.1283,13.4006 L 64.3287,13.1519 L 64.5291,12.7519 L 64.7295,12.5504 L 64.9299,12.2295 L 65.1303,11.8735 L 65.3307,11.5572 L 65.5311,11.2289 L 65.7315,10.828 L 65.9319,10.4823 L 66.1323,10.4192 L 66.3327,10.0152 L 66.5331,9.7796 L 66.7335,9.4425 L 66.9339,8.9195 L 67.1343,8.3741 L 67.3347,7.7933 L 67.5351,7.1525 L 67.7355,6.6374 L 67.9359,6.3799 L 68.1363,6.0851 L 68.3367,5.7544 L 68.5371,5.5013 L 68.7375,5.3602 L 68.9379,5.4952 L 69.1383,5.5878 L 69.3387,5.7337 L 69.5391,5.8449 L 69.7395,5.8535 L 69.9399,5.9578 L 70.1403,6.079 L 70.3407,6.0699 L 70.5411,5.9771 L 70.7415,5.704 L 70.9419,5.4736 L 71.1423,4.876 L 71.3427,4.7524 L 71.5431,4.4643 L 71.7435,4.0322 L 71.9439,3.5481 L 72.1443,3.0377 L 72.3447,2.4419 L 72.5451,1.3966 L 72.7455,0.5726 L 72.9459,0.2396 L 73.1463,0.0833 L 73.3467,0 L 73.5471,0.4885 L 73.7475,0.9266 L 73.9479,1.2226 L 74.1483,1.4996 L 74.3487,1.702 L 74.5491,1.8414 L 74.7495,2.205 L 74.9499,2.7329 L 75.1503,3.1567 L 75.3507,3.4189 L 75.5511,3.5668 L 75.7515,3.729 L 75.9519,3.8284 L 76.1523,3.912 L 76.3527,3.9995 L 76.5531,4.0404 L 76.7535,4.1088 L 76.9539,4.3575 L 77.1543,4.619 L 77.3547,4.7399 L 77.5551,4.8741 L 77.7555,5.1482 L 77.9559,5.3636 L 78.1563,5.5638 L 78.3567,5.7571 L 78.5571,6.1343 L 78.7575,6.5636 L 78.9579,7.0472 L 79.1583,7.4236 L 79.3587,7.7327 L 79.5591,8.0039 L 79.7595,8.0995 L 79.9599,8.1793 L 80.1603,8.3257 L 80.3607,8.8248 L 80.5611,9.1308 L 80.7615,9.4274 L 80.9619,9.5755 L 81.1623,9.8768 L 81.3627,10.1065 L 81.5631,10.2754 L 81.7635,10.2847 L 81.9639,10.2677 L 82.1643,10.2685 L 82.3647,10.3967 L 82.5651,10.6685 L 82.7655,10.8754 L 82.9659,11.0576 L 83.1663,11.253 L 83.3667,11.5076 L 83.5671,11.851 L 83.7675,12.1808 L 83.9679,12.4029 L 84.1683,12.6124 L 84.3687,12.5904 L 84.5691,12.6338 L 84.7695,12.9523 L 84.9699,13.1569 L 85.1703,13.3457 L 85.3707,13.6238 L 85.5711,13.948 L 85.7715,14.191 L 85.9719,14.3556 L 86.1723,14.6101 L 86.3727,14.7794 L 86.5731,15.1771 L 86.7735,15.3803 L 86.9739,15.558 L 87.1743,15.8003 L 87.3747,16.0819 L 87.5752,16.4049 L 87.7756,16.6509 L 87.976,16.7588 L 88.1764,16.7385 L 88.3768,16.6447 L 88.5772,16.8335 L 88.7776,17.2076 L 88.978,17.4918 L 89.1784,17.6334 L 89.3788,17.7506 L 89.5792,17.8381 L 89.7796,17.849 L 89.98,17.7529 L 90.1804,17.4943 L 90.3808,17.224 L 90.5812,16.8994 L 90.7816,16.4961 L 90.982,15.9971 L 91.1824,15.5115 L 91.3828,15.0584 L 91.5832,14.6789 L 91.7836,14.2962 L 91.984,13.9408 L 92.1844,13.6315 L 92.3848,13.3074 L 92.5852,12.8923 L 92.7856,12.1734 L 92.986,11.6009 L 93.1864,11.6907 L 93.3868,11.9543 L 93.5872,12.1103 L 93.7876,12.2698 L 93.988,12.4054 L 94.1884,12.584 L 94.3888,12.6962 L 94.5892,12.8357 L 94.7896,13.1154 L 94.99,13.4359 L 95.1904,13.7334 L 95.3908,13.9635 L 95.5912,14.1472 L 95.7916,14.3308 L 95.992,14.5859 L 96.1924,14.8948 L 96.3928,15.1894 L 96.5932,15.4045 L 96.7936,15.5426 L 96.994,15.5354 L 97.1944,15.4791 L 97.3948,15.4031 L 97.5952,15.5784 L 97.7956,15.9075 L 97.996,16.1693 L 98.1964,16.2177 L 98.3968,16.177 L 98.5972,16.1055 L 98.7976,15.9394 L 98.998,15.7818 L 99.1984,15.7544 L 99.3988,15.5496 L 99.5992,15.1282 L 99.7996,14.9798 L 100,15.2424" />
	

		<path
			style="transform: translateY(30%) scaleY(30%)"
			fill="transparent"
			stroke="currentColor"
			strokeWidth="1%"
			d="M 0,7.2356 L 0.2004,7.8391 L 0.4008,8.608 L 0.6012,9.2744 L 0.8016,9.5369 L 1.002,9.5455 L 1.2024,9.6063 L 1.4028,9.7188 L 1.6032,10.0744 L 1.8036,10.6161 L 2.004,11.0116 L 2.2044,11.3501 L 2.4048,11.3718 L 2.6052,11.3468 L 2.8056,11.2403 L 3.006,11.2303 L 3.2064,11.2093 L 3.4068,11.098 L 3.6072,10.926 L 3.8076,10.7802 L 4.008,10.6835 L 4.2084,10.4772 L 4.4088,10.3087 L 4.6092,10.3039 L 4.8096,10.1964 L 5.01,10.0791 L 5.2104,10.0764 L 5.4108,10.2976 L 5.6112,10.4828 L 5.8116,10.5749 L 6.012,10.6783 L 6.2124,10.7848 L 6.4128,10.828 L 6.6132,10.8683 L 6.8136,10.9552 L 7.014,11.2012 L 7.2144,11.6318 L 7.4148,11.7727 L 7.6152,11.9923 L 7.8156,12.2843 L 8.016,12.3159 L 8.2164,12.3289 L 8.4168,12.4888 L 8.6172,12.677 L 8.8176,12.7307 L 9.018,12.8129 L 9.2184,12.9531 L 9.4188,13.043 L 9.6192,13.0213 L 9.8196,12.9578 L 10.02,12.8259 L 10.2204,12.6193 L 10.4208,12.3216 L 10.6212,12.3106 L 10.8216,11.8555 L 11.022,11.2888 L 11.2224,11.1959 L 11.4228,10.8501 L 11.6232,10.583 L 11.8236,10.2761 L 12.024,10.1425 L 12.2244,9.8628 L 12.4248,9.5871 L 12.6253,9.2116 L 12.8257,9.3293 L 13.0261,9.4234 L 13.2265,9.8615 L 13.4269,10.2366 L 13.6273,10.3273 L 13.8277,10.627 L 14.0281,11.0089 L 14.2285,11.2028 L 14.4289,11.1308 L 14.6293,11.0538 L 14.8297,10.9735 L 15.0301,11.1005 L 15.2305,11.2513 L 15.4309,11.1132 L 15.6313,10.9617 L 15.8317,10.8122 L 16.0321,10.7146 L 16.2325,10.6712 L 16.4329,10.6494 L 16.6333,10.6456 L 16.8337,10.6646 L 17.0341,10.6802 L 17.2345,10.6043 L 17.4349,10.4451 L 17.6353,10.277 L 17.8357,10.1978 L 18.0361,10.1309 L 18.2365,10.067 L 18.4369,10.0108 L 18.6373,9.9846 L 18.8377,9.8715 L 19.0381,9.6918 L 19.2385,9.4935 L 19.4389,9.2674 L 19.6393,9.0184 L 19.8397,8.9618 L 20.0401,8.7216 L 20.2405,8.5463 L 20.4409,8.4827 L 20.6413,8.3068 L 20.8417,8.1148 L 21.0421,7.9773 L 21.2425,7.8197 L 21.4429,7.6316 L 21.6433,7.5491 L 21.8437,7.5039 L 22.0441,7.4886 L 22.2445,7.3375 L 22.4449,6.9967 L 22.6453,6.6953 L 22.8457,6.3057 L 23.0461,5.7576 L 23.2465,4.9706 L 23.4469,3.9799 L 23.6473,2.9919 L 23.8477,1.9441 L 24.0481,0.8985 L 24.2485,0.5431 L 24.4489,0.2142 L 24.6493,0 L 24.8497,0.2601 L 25.0501,0.5194 L 25.2505,0.8233 L 25.4509,0.9251 L 25.6513,1.1928 L 25.8517,1.8179 L 26.0521,2.5681 L 26.2525,3.081 L 26.4529,3.5374 L 26.6533,3.9562 L 26.8537,4.6275 L 27.0541,5.1113 L 27.2545,5.4978 L 27.4549,5.6833 L 27.6553,5.8202 L 27.8557,5.9021 L 28.0561,5.9135 L 28.2565,5.8181 L 28.4569,5.7194 L 28.6573,5.3738 L 28.8577,5.4058 L 29.0581,5.4859 L 29.2585,5.3109 L 29.4589,5.2302 L 29.6593,5.0951 L 29.8597,4.8185 L 30.0601,4.6851 L 30.2605,4.6188 L 30.4609,4.4077 L 30.6613,4.0883 L 30.8617,3.9515 L 31.0621,4.3289 L 31.2625,4.7719 L 31.4629,5.1047 L 31.6633,5.4222 L 31.8637,5.7051 L 32.0641,5.8993 L 32.2645,5.9848 L 32.4649,6.0706 L 32.6653,6.2569 L 32.8657,6.4368 L 33.0661,6.4782 L 33.2665,6.5291 L 33.4669,6.6323 L 33.6673,6.7609 L 33.8677,6.8754 L 34.0681,7.0181 L 34.2685,6.6549 L 34.4689,6.339 L 34.6693,5.9129 L 34.8697,5.3667 L 35.0701,5.0422 L 35.2705,5.1237 L 35.4709,5.532 L 35.6713,6.0057 L 35.8717,6.0874 L 36.0721,6.0848 L 36.2725,6.1574 L 36.4729,6.2552 L 36.6733,6.33 L 36.8737,6.5726 L 37.0741,6.7645 L 37.2745,6.9378 L 37.4749,7.4395 L 37.6754,7.9808 L 37.8758,8.3994 L 38.0762,8.7279 L 38.2766,8.8929 L 38.477,8.9405 L 38.6774,8.9885 L 38.8778,9.157 L 39.0782,9.3377 L 39.2786,9.5724 L 39.479,9.8038 L 39.6794,9.9947 L 39.8798,10.0669 L 40.0802,9.9078 L 40.2806,9.6477 L 40.481,9.3654 L 40.6814,9.1848 L 40.8818,8.9404 L 41.0822,8.9737 L 41.2826,8.8645 L 41.483,9.2383 L 41.6834,9.7005 L 41.8838,9.8838 L 42.0842,10.3082 L 42.2846,10.7724 L 42.485,10.9949 L 42.6854,11.2685 L 42.8858,11.4539 L 43.0862,11.8496 L 43.2866,11.7961 L 43.487,11.8249 L 43.6874,12.1491 L 43.8878,12.5372 L 44.0882,12.8204 L 44.2886,12.8329 L 44.489,12.9294 L 44.6894,13.1851 L 44.8898,13.6441 L 45.0902,13.6789 L 45.2906,13.7739 L 45.491,13.9349 L 45.6914,14.0869 L 45.8918,14.3569 L 46.0922,14.5903 L 46.2926,14.2838 L 46.493,13.7926 L 46.6934,13.4329 L 46.8938,13.7423 L 47.0942,14.0499 L 47.2946,14.2404 L 47.495,14.444 L 47.6954,14.4735 L 47.8958,14.4308 L 48.0962,14.3122 L 48.2966,14.0621 L 48.497,13.8163 L 48.6974,13.985 L 48.8978,14.0541 L 49.0982,14.0225 L 49.2986,13.7764 L 49.499,13.4157 L 49.6994,13.2183 L 49.8998,13.2578 L 50.1002,13.2263 L 50.3006,13.2218 L 50.501,12.8692 L 50.7014,12.5858 L 50.9018,12.3364 L 51.1022,12.0176 L 51.3026,11.7816 L 51.503,11.6875 L 51.7034,11.6591 L 51.9038,11.4559 L 52.1042,11.2321 L 52.3046,11.1391 L 52.505,10.9568 L 52.7054,10.6443 L 52.9058,10.2004 L 53.1062,10.0171 L 53.3066,9.7831 L 53.507,9.8776 L 53.7074,9.6811 L 53.9078,9.5147 L 54.1082,9.367 L 54.3086,9.2312 L 54.509,8.9012 L 54.7094,8.5752 L 54.9098,8.2928 L 55.1102,8.2522 L 55.3106,8.2264 L 55.511,8.1106 L 55.7114,8.0758 L 55.9118,8.1084 L 56.1122,8.306 L 56.3126,8.14 L 56.513,7.9353 L 56.7134,7.6796 L 56.9138,7.3158 L 57.1142,6.9444 L 57.3146,6.4665 L 57.515,6.0828 L 57.7154,5.7831 L 57.9158,5.4434 L 58.1162,5.0017 L 58.3166,4.6763 L 58.517,4.5395 L 58.7174,4.318 L 58.9178,3.9528 L 59.1182,3.4736 L 59.3186,2.9277 L 59.519,2.4486 L 59.7194,2.1503 L 59.9198,2.0786 L 60.1202,1.8105 L 60.3206,1.6168 L 60.521,1.6473 L 60.7214,1.81 L 60.9218,1.7736 L 61.1222,1.7485 L 61.3226,1.6732 L 61.523,1.674 L 61.7234,1.6821 L 61.9238,1.6643 L 62.1242,1.4572 L 62.3246,1.3545 L 62.5251,1.6892 L 62.7255,1.9091 L 62.9259,2.0256 L 63.1263,2.3683 L 63.3267,2.8272 L 63.5271,3.0106 L 63.7275,3.2794 L 63.9279,3.417 L 64.1283,3.4469 L 64.3287,3.4455 L 64.5291,3.4967 L 64.7295,3.5122 L 64.9299,3.5661 L 65.1303,3.4584 L 65.3307,3.4321 L 65.5311,3.1151 L 65.7315,2.9807 L 65.9319,3.274 L 66.1323,3.5285 L 66.3327,3.7162 L 66.5331,3.9491 L 66.7335,4.2679 L 66.9339,4.6066 L 67.1343,5.0137 L 67.3347,5.4111 L 67.5351,5.6492 L 67.7355,6.052 L 67.9359,6.4463 L 68.1363,6.8466 L 68.3367,7.2876 L 68.5371,7.5421 L 68.7375,7.8436 L 68.9379,8.0845 L 69.1383,8.2094 L 69.3387,8.227 L 69.5391,8.3101 L 69.7395,8.4057 L 69.9399,8.4009 L 70.1403,8.4927 L 70.3407,8.6884 L 70.5411,8.8733 L 70.7415,8.984 L 70.9419,9.0908 L 71.1423,9.2912 L 71.3427,9.4137 L 71.5431,9.4766 L 71.7435,9.4419 L 71.9439,9.4391 L 72.1443,9.4194 L 72.3447,9.5329 L 72.5451,9.7125 L 72.7455,9.8602 L 72.9459,10.0325 L 73.1463,10.3105 L 73.3467,10.6644 L 73.5471,10.9672 L 73.7475,11.2884 L 73.9479,11.5739 L 74.1483,11.9098 L 74.3487,12.2794 L 74.5491,12.7011 L 74.7495,13.293 L 74.9499,13.7371 L 75.1503,14.2374 L 75.3507,14.6429 L 75.5511,14.9552 L 75.7515,15.403 L 75.9519,15.6929 L 76.1523,15.7401 L 76.3527,15.7085 L 76.5531,15.8019 L 76.7535,15.9251 L 76.9539,15.915 L 77.1543,16.0017 L 77.3547,16.1044 L 77.5551,15.9285 L 77.7555,15.8268 L 77.9559,15.8765 L 78.1563,15.9504 L 78.3567,15.968 L 78.5571,16.0397 L 78.7575,16.2664 L 78.9579,16.3748 L 79.1583,16.5562 L 79.3587,16.5816 L 79.5591,16.6059 L 79.7595,16.6562 L 79.9599,16.7117 L 80.1603,16.6633 L 80.3607,16.4597 L 80.5611,16.2198 L 80.7615,15.9667 L 80.9619,15.7247 L 81.1623,15.5841 L 81.3627,15.3537 L 81.5631,14.988 L 81.7635,14.2833 L 81.9639,13.5502 L 82.1643,12.9042 L 82.3647,12.3305 L 82.5651,12.1613 L 82.7655,11.8242 L 82.9659,11.7134 L 83.1663,11.9097 L 83.3667,12.3732 L 83.5671,12.7394 L 83.7675,13.1375 L 83.9679,13.6555 L 84.1683,14.0939 L 84.3687,14.5135 L 84.5691,14.9141 L 84.7695,15.3229 L 84.9699,15.7299 L 85.1703,16.2181 L 85.3707,16.7745 L 85.5711,17.4428 L 85.7715,18.4011 L 85.9719,18.887 L 86.1723,19.3589 L 86.3727,19.7995 L 86.5731,20.0055 L 86.7735,19.9738 L 86.9739,19.8957 L 87.1743,19.7983 L 87.3747,19.7206 L 87.5752,19.5998 L 87.7756,19.5308 L 87.976,19.5226 L 88.1764,19.4951 L 88.3768,19.4899 L 88.5772,19.4188 L 88.7776,19.1704 L 88.978,19.0096 L 89.1784,18.7985 L 89.3788,18.8734 L 89.5792,18.9246 L 89.7796,19.0575 L 89.98,18.7307 L 90.1804,18.2627 L 90.3808,17.8587 L 90.5812,17.5054 L 90.7816,17.1425 L 90.982,17.0887 L 91.1824,17.1494 L 91.3828,17.1409 L 91.5832,16.8629 L 91.7836,16.5781 L 91.984,16.6145 L 92.1844,16.6174 L 92.3848,16.6095 L 92.5852,16.6511 L 92.7856,17.1002 L 92.986,17.6074 L 93.1864,18.0412 L 93.3868,18.4951 L 93.5872,18.74 L 93.7876,18.9855 L 93.988,19.1399 L 94.1884,19.273 L 94.3888,19.3932 L 94.5892,19.5478 L 94.7896,19.772 L 94.99,20.3454 L 95.1904,20.9318 L 95.3908,21.544 L 95.5912,22.1413 L 95.7916,22.6464 L 95.992,23.1014 L 96.1924,23.4078 L 96.3928,23.6574 L 96.5932,23.9269 L 96.7936,24.0595 L 96.994,23.965 L 97.1944,24.0109 L 97.3948,24.0163 L 97.5952,23.9108 L 97.7956,23.798 L 97.996,23.659 L 98.1964,23.3425 L 98.3968,22.9482 L 98.5972,22.8091 L 98.7976,22.6162 L 98.998,22.524 L 99.1984,22.378 L 99.3988,21.9948 L 99.5992,21.5365 L 99.7996,21.3467 L 100,21.1399" />
	

		<path
			style="transform: translateY(20%) scaleY(30%)"
			fill="transparent"
			stroke="currentColor"
			strokeWidth="1%"
			d="M 0,13.7387 L 0.2004,13.4567 L 0.4008,13.4559 L 0.6012,13.5125 L 0.8016,13.4575 L 1.002,13.5224 L 1.2024,13.5633 L 1.4028,13.519 L 1.6032,13.4323 L 1.8036,13.3347 L 2.004,13.4053 L 2.2044,13.8319 L 2.4048,14.3775 L 2.6052,14.7514 L 2.8056,15.0525 L 3.006,15.2768 L 3.2064,15.3487 L 3.4068,15.2292 L 3.6072,15.1942 L 3.8076,15.1543 L 4.008,15.0944 L 4.2084,14.7908 L 4.4088,14.3498 L 4.6092,14.1126 L 4.8096,13.913 L 5.01,13.4411 L 5.2104,12.9038 L 5.4108,12.4037 L 5.6112,12.1574 L 5.8116,12.0566 L 6.012,12.2265 L 6.2124,12.5076 L 6.4128,12.4721 L 6.6132,12.3463 L 6.8136,12.3353 L 7.014,12.2819 L 7.2144,12.3678 L 7.4148,12.5086 L 7.6152,12.6986 L 7.8156,12.8849 L 8.016,13.0635 L 8.2164,13.2325 L 8.4168,13.3499 L 8.6172,13.4404 L 8.8176,13.6027 L 9.018,13.8233 L 9.2184,13.9276 L 9.4188,13.8768 L 9.6192,13.7151 L 9.8196,13.517 L 10.02,13.2913 L 10.2204,13.0444 L 10.4208,13.136 L 10.6212,13.5246 L 10.8216,13.9442 L 11.022,14.4385 L 11.2224,14.9234 L 11.4228,15.3193 L 11.6232,15.6884 L 11.8236,15.9615 L 12.024,16.3513 L 12.2244,16.8035 L 12.4248,17.0629 L 12.6253,16.9115 L 12.8257,16.7112 L 13.0261,16.3587 L 13.2265,16.0948 L 13.4269,16.3799 L 13.6273,16.8006 L 13.8277,17.1439 L 14.0281,17.7095 L 14.2285,18.1318 L 14.4289,18.5351 L 14.6293,18.7443 L 14.8297,18.7495 L 15.0301,18.7119 L 15.2305,18.6663 L 15.4309,18.571 L 15.6313,18.4523 L 15.8317,18.2121 L 16.0321,17.9146 L 16.2325,17.739 L 16.4329,17.5819 L 16.6333,17.3728 L 16.8337,17.2877 L 17.0341,17.2126 L 17.2345,16.8838 L 17.4349,16.7256 L 17.6353,16.4941 L 17.8357,16.2062 L 18.0361,16.1572 L 18.2365,16.0938 L 18.4369,15.9919 L 18.6373,15.8569 L 18.8377,15.7216 L 19.0381,15.8028 L 19.2385,15.7973 L 19.4389,15.8322 L 19.6393,15.5609 L 19.8397,15.1772 L 20.0401,15.042 L 20.2405,15.1723 L 20.4409,15.3492 L 20.6413,15.3854 L 20.8417,15.3045 L 21.0421,15.2132 L 21.2425,15.0877 L 21.4429,14.9502 L 21.6433,14.8186 L 21.8437,14.6618 L 22.0441,14.493 L 22.2445,14.3193 L 22.4449,14.1873 L 22.6453,14.1288 L 22.8457,14.0772 L 23.0461,14.0962 L 23.2465,14.1647 L 23.4469,14.1196 L 23.6473,14.0709 L 23.8477,14.0332 L 24.0481,14.0021 L 24.2485,13.9168 L 24.4489,13.7663 L 24.6493,13.5649 L 24.8497,13.314 L 25.0501,13.0599 L 25.2505,12.7848 L 25.4509,12.4158 L 25.6513,11.7689 L 25.8517,10.873 L 26.0521,10.325 L 26.2525,9.6769 L 26.4529,9.0059 L 26.6533,8.3856 L 26.8537,7.7444 L 27.0541,7.1873 L 27.2545,6.6172 L 27.4549,5.9774 L 27.6553,5.2579 L 27.8557,4.244 L 28.0561,3.3089 L 28.2565,2.7747 L 28.4569,2.3664 L 28.6573,1.9966 L 28.8577,1.5496 L 29.0581,1.1936 L 29.2585,0.858 L 29.4589,0.5233 L 29.6593,0.354 L 29.8597,0.355 L 30.0601,0.4374 L 30.2605,0.2618 L 30.4609,0.1061 L 30.6613,0 L 30.8617,0.0642 L 31.0621,0.105 L 31.2625,0.1434 L 31.4629,0.1197 L 31.6633,0.2457 L 31.8637,0.4061 L 32.0641,0.8561 L 32.2645,1.2341 L 32.4649,1.7149 L 32.6653,2.2335 L 32.8657,2.8086 L 33.0661,3.3407 L 33.2665,3.7577 L 33.4669,4.0879 L 33.6673,4.3509 L 33.8677,4.6925 L 34.0681,5.0377 L 34.2685,5.343 L 34.4689,5.5483 L 34.6693,5.77 L 34.8697,5.9819 L 35.0701,6.1068 L 35.2705,6.0465 L 35.4709,6.1842 L 35.6713,6.4118 L 35.8717,6.4419 L 36.0721,6.4171 L 36.2725,6.2566 L 36.4729,6.0235 L 36.6733,5.8172 L 36.8737,5.4331 L 37.0741,4.9243 L 37.2745,4.4311 L 37.4749,3.9732 L 37.6754,3.4072 L 37.8758,2.6784 L 38.0762,2.1286 L 38.2766,1.786 L 38.477,1.5389 L 38.6774,1.4081 L 38.8778,1.348 L 39.0782,1.4351 L 39.2786,1.6425 L 39.479,1.9364 L 39.6794,2.343 L 39.8798,2.8187 L 40.0802,3.3679 L 40.2806,3.9203 L 40.481,4.3921 L 40.6814,4.8688 L 40.8818,5.3471 L 41.0822,5.9009 L 41.2826,6.494 L 41.483,7.1038 L 41.6834,7.7216 L 41.8838,8.2044 L 42.0842,8.4835 L 42.2846,8.8694 L 42.485,9.1944 L 42.6854,9.4158 L 42.8858,9.735 L 43.0862,10.345 L 43.2866,11.0319 L 43.487,11.5693 L 43.6874,12.0898 L 43.8878,12.5472 L 44.0882,12.7975 L 44.2886,13.0717 L 44.489,13.4213 L 44.6894,13.8186 L 44.8898,14.2562 L 45.0902,14.6906 L 45.2906,15.1019 L 45.491,15.4389 L 45.6914,15.8423 L 45.8918,16.4395 L 46.0922,16.8171 L 46.2926,17.2298 L 46.493,17.3066 L 46.6934,17.2376 L 46.8938,17.0583 L 47.0942,16.9979 L 47.2946,16.9542 L 47.495,17.0128 L 47.6954,17.0076 L 47.8958,16.8927 L 48.0962,16.8965 L 48.2966,17.1442 L 48.497,17.3491 L 48.6974,17.2835 L 48.8978,17.2275 L 49.0982,16.9888 L 49.2986,16.6961 L 49.499,16.7699 L 49.6994,16.7887 L 49.8998,16.7154 L 50.1002,16.6124 L 50.3006,16.6561 L 50.501,16.6274 L 50.7014,16.5621 L 50.9018,16.5352 L 51.1022,16.2917 L 51.3026,15.4334 L 51.503,14.901 L 51.7034,14.6326 L 51.9038,14.5557 L 52.1042,14.5701 L 52.3046,14.3978 L 52.505,14.0783 L 52.7054,13.8749 L 52.9058,13.6808 L 53.1062,13.4819 L 53.3066,13.2151 L 53.507,13.1122 L 53.7074,12.9733 L 53.9078,12.8417 L 54.1082,12.5913 L 54.3086,12.479 L 54.509,12.639 L 54.7094,12.5348 L 54.9098,12.2213 L 55.1102,11.9616 L 55.3106,11.8308 L 55.511,11.6787 L 55.7114,11.8671 L 55.9118,12.3147 L 56.1122,12.7613 L 56.3126,13.2459 L 56.513,13.6726 L 56.7134,14.24 L 56.9138,14.5593 L 57.1142,14.8877 L 57.3146,15.2353 L 57.515,15.5487 L 57.7154,15.861 L 57.9158,16.1651 L 58.1162,16.4102 L 58.3166,16.5906 L 58.517,16.6588 L 58.7174,16.712 L 58.9178,16.767 L 59.1182,16.8466 L 59.3186,17.0272 L 59.519,17.2888 L 59.7194,17.5609 L 59.9198,17.8842 L 60.1202,18.2218 L 60.3206,18.4674 L 60.521,18.7006 L 60.7214,18.8867 L 60.9218,19.0608 L 61.1222,19.1064 L 61.3226,19.1147 L 61.523,19.1195 L 61.7234,19.0982 L 61.9238,18.9953 L 62.1242,18.897 L 62.3246,18.8273 L 62.5251,18.7826 L 62.7255,18.7505 L 62.9259,18.7144 L 63.1263,18.6741 L 63.3267,18.6128 L 63.5271,18.4787 L 63.7275,18.2522 L 63.9279,17.9875 L 64.1283,17.6864 L 64.3287,17.3214 L 64.5291,16.8797 L 64.7295,16.497 L 64.9299,16.1594 L 65.1303,15.8735 L 65.3307,15.7028 L 65.5311,15.5869 L 65.7315,15.4915 L 65.9319,15.4296 L 66.1323,15.5146 L 66.3327,15.5341 L 66.5331,15.4879 L 66.7335,15.3656 L 66.9339,15.1612 L 67.1343,14.8943 L 67.3347,14.5784 L 67.5351,14.2814 L 67.7355,14.1913 L 67.9359,14.1309 L 68.1363,14.0952 L 68.3367,14.0365 L 68.5371,14.139 L 68.7375,14.3433 L 68.9379,14.5893 L 69.1383,14.8147 L 69.3387,15.0871 L 69.5391,15.4164 L 69.7395,15.7238 L 69.9399,16.0035 L 70.1403,16.3031 L 70.3407,16.6868 L 70.5411,17.0268 L 70.7415,17.3166 L 70.9419,17.667 L 71.1423,18.0707 L 71.3427,18.4172 L 71.5431,18.6904 L 71.7435,19.0229 L 71.9439,19.3527 L 72.1443,19.6359 L 72.3447,19.5948 L 72.5451,19.817 L 72.7455,20.0217 L 72.9459,20.239 L 73.1463,20.5704 L 73.3467,20.824 L 73.5471,21.0454 L 73.7475,21.5464 L 73.9479,21.9921 L 74.1483,22.1901 L 74.3487,22.3094 L 74.5491,22.456 L 74.7495,22.6089 L 74.9499,22.9536 L 75.1503,23.2385 L 75.3507,23.5158 L 75.5511,23.8709 L 75.7515,24.0761 L 75.9519,24.2794 L 76.1523,24.6799 L 76.3527,25.2269 L 76.5531,26.0066 L 76.7535,26.7565 L 76.9539,27.4654 L 77.1543,28.211 L 77.3547,28.7071 L 77.5551,29.034 L 77.7555,29.2539 L 77.9559,29.3973 L 78.1563,29.4202 L 78.3567,29.3701 L 78.5571,29.3097 L 78.7575,29.2546 L 78.9579,29.2086 L 79.1583,29.2226 L 79.3587,29.2638 L 79.5591,29.2966 L 79.7595,29.3847 L 79.9599,29.5403 L 80.1603,29.6494 L 80.3607,29.6923 L 80.5611,29.6163 L 80.7615,29.6089 L 80.9619,29.5153 L 81.1623,29.5065 L 81.3627,29.5524 L 81.5631,29.5874 L 81.7635,29.5949 L 81.9639,29.6818 L 82.1643,29.7818 L 82.3647,29.8815 L 82.5651,30.1031 L 82.7655,30.2534 L 82.9659,30.3351 L 83.1663,30.3932 L 83.3667,30.4933 L 83.5671,30.5891 L 83.7675,30.587 L 83.9679,30.4441 L 84.1683,30.3769 L 84.3687,30.4075 L 84.5691,30.4058 L 84.7695,30.3112 L 84.9699,30.2861 L 85.1703,30.3709 L 85.3707,30.5001 L 85.5711,30.5639 L 85.7715,30.5622 L 85.9719,30.5832 L 86.1723,30.6696 L 86.3727,30.7465 L 86.5731,30.8461 L 86.7735,31.0175 L 86.9739,31.2031 L 87.1743,31.3154 L 87.3747,31.3185 L 87.5752,31.3365 L 87.7756,31.454 L 87.976,31.5715 L 88.1764,31.698 L 88.3768,31.9139 L 88.5772,32.0618 L 88.7776,32.1717 L 88.978,32.2506 L 89.1784,32.2498 L 89.3788,32.332 L 89.5792,32.5165 L 89.7796,32.6532 L 89.98,32.8068 L 90.1804,32.8885 L 90.3808,33.1259 L 90.5812,33.3119 L 90.7816,33.5041 L 90.982,33.7467 L 91.1824,33.8326 L 91.3828,33.909 L 91.5832,34.1046 L 91.7836,34.2543 L 91.984,34.4305 L 92.1844,34.6521 L 92.3848,34.8339 L 92.5852,34.9974 L 92.7856,35.2327 L 92.986,35.43 L 93.1864,35.605 L 93.3868,35.8564 L 93.5872,36.0405 L 93.7876,36.2511 L 93.988,36.7002 L 94.1884,37.1474 L 94.3888,37.6655 L 94.5892,38.162 L 94.7896,38.4843 L 94.99,38.749 L 95.1904,39.2846 L 95.3908,39.7444 L 95.5912,40.461 L 95.7916,41.0581 L 95.992,41.6103 L 96.1924,42.1524 L 96.3928,42.7431 L 96.5932,43.2438 L 96.7936,43.8368 L 96.994,44.3282 L 97.1944,44.7027 L 97.3948,45.0189 L 97.5952,45.2661 L 97.7956,45.6244 L 97.996,45.9454 L 98.1964,46.1096 L 98.3968,46.3151 L 98.5972,46.5666 L 98.7976,46.8578 L 98.998,47.0127 L 99.1984,47.0355 L 99.3988,47.2107 L 99.5992,47.3687 L 99.7996,47.5813 L 100,47.6795" />
	

		<path
			style="transform: translateY(10%) scaleY(30%)"
			fill="transparent"
			stroke="currentColor"
			strokeWidth="1%"
			d="M 0,32.001 L 0.2004,31.6198 L 0.4008,31.405 L 0.6012,31.2001 L 0.8016,30.9949 L 1.002,30.7546 L 1.2024,30.5302 L 1.4028,30.337 L 1.6032,30.0627 L 1.8036,29.8904 L 2.004,29.747 L 2.2044,29.5921 L 2.4048,29.5446 L 2.6052,29.3597 L 2.8056,29.1998 L 3.006,29.0592 L 3.2064,28.9516 L 3.4068,28.8639 L 3.6072,28.8039 L 3.8076,28.7018 L 4.008,28.6313 L 4.2084,28.5387 L 4.4088,28.3695 L 4.6092,28.1429 L 4.8096,27.8759 L 5.01,27.7936 L 5.2104,27.7209 L 5.4108,27.4867 L 5.6112,26.8782 L 5.8116,26.6822 L 6.012,26.7309 L 6.2124,26.7678 L 6.4128,26.6985 L 6.6132,26.6341 L 6.8136,26.7121 L 7.014,26.8225 L 7.2144,26.9523 L 7.4148,26.9807 L 7.6152,26.9115 L 7.8156,26.9802 L 8.016,27.2499 L 8.2164,27.5093 L 8.4168,27.7091 L 8.6172,27.8533 L 8.8176,28.0313 L 9.018,28.2459 L 9.2184,28.3943 L 9.4188,28.4725 L 9.6192,28.5639 L 9.8196,28.7041 L 10.02,28.8727 L 10.2204,29.0731 L 10.4208,29.3686 L 10.6212,29.4464 L 10.8216,29.4399 L 11.022,29.4292 L 11.2224,29.4185 L 11.4228,29.4131 L 11.6232,29.3966 L 11.8236,29.3768 L 12.024,29.3594 L 12.2244,29.3359 L 12.4248,29.3287 L 12.6253,29.3068 L 12.8257,29.2927 L 13.0261,29.2875 L 13.2265,29.2762 L 13.4269,29.275 L 13.6273,29.2787 L 13.8277,29.2802 L 14.0281,29.2672 L 14.2285,29.1566 L 14.4289,29.0351 L 14.6293,28.7978 L 14.8297,28.4036 L 15.0301,28.0591 L 15.2305,27.8028 L 15.4309,27.5174 L 15.6313,27.2518 L 15.8317,26.9666 L 16.0321,26.6606 L 16.2325,26.3666 L 16.4329,26.0603 L 16.6333,25.7445 L 16.8337,25.4025 L 17.0341,25.0701 L 17.2345,24.7285 L 17.4349,24.3971 L 17.6353,24.0698 L 17.8357,23.7495 L 18.0361,23.4044 L 18.2365,23.0686 L 18.4369,22.7354 L 18.6373,22.3836 L 18.8377,22.0471 L 19.0381,21.7131 L 19.2385,21.3559 L 19.4389,21.0165 L 19.6393,20.7056 L 19.8397,20.3424 L 20.0401,20.0116 L 20.2405,19.6572 L 20.4409,19.2921 L 20.6413,18.8587 L 20.8417,18.3058 L 21.0421,17.6481 L 21.2425,16.8278 L 21.4429,16.1542 L 21.6433,15.5255 L 21.8437,14.8856 L 22.0441,14.1433 L 22.2445,13.4327 L 22.4449,12.7522 L 22.6453,12.1695 L 22.8457,11.6713 L 23.0461,11.2813 L 23.2465,10.993 L 23.4469,10.8405 L 23.6473,10.7249 L 23.8477,10.6044 L 24.0481,10.4634 L 24.2485,10.2416 L 24.4489,10.0017 L 24.6493,9.747 L 24.8497,9.4761 L 25.0501,9.187 L 25.2505,8.9462 L 25.4509,8.7174 L 25.6513,8.5008 L 25.8517,8.3239 L 26.0521,8.1482 L 26.2525,7.9644 L 26.4529,7.7483 L 26.6533,7.427 L 26.8537,7.052 L 27.0541,6.6488 L 27.2545,6.3897 L 27.4549,6.3061 L 27.6553,6.3415 L 27.8557,6.4011 L 28.0561,6.4173 L 28.2565,6.4025 L 28.4569,6.3779 L 28.6573,6.3262 L 28.8577,6.2697 L 29.0581,6.2101 L 29.2585,6.1529 L 29.4589,6.0914 L 29.6593,6.0257 L 29.8597,5.9507 L 30.0601,5.7058 L 30.2605,5.3845 L 30.4609,4.9866 L 30.6613,4.5251 L 30.8617,4.0017 L 31.0621,3.551 L 31.2625,3.1874 L 31.4629,2.984 L 31.6633,2.8653 L 31.8637,2.7815 L 32.0641,2.69 L 32.2645,2.5768 L 32.4649,2.4835 L 32.6653,2.3979 L 32.8657,2.2401 L 33.0661,2.0662 L 33.2665,1.8923 L 33.4669,1.6418 L 33.6673,1.3399 L 33.8677,1.0339 L 34.0681,0.7294 L 34.2685,0.438 L 34.4689,0.1948 L 34.6693,0 L 34.8697,0.1366 L 35.0701,0.523 L 35.2705,0.9174 L 35.4709,1.3098 L 35.6713,1.6561 L 35.8717,1.9142 L 36.0721,2.1643 L 36.2725,2.3367 L 36.4729,2.4802 L 36.6733,2.5974 L 36.8737,2.691 L 37.0741,2.7571 L 37.2745,2.8272 L 37.4749,2.9685 L 37.6754,3.1635 L 37.8758,3.3758 L 38.0762,3.6003 L 38.2766,3.9106 L 38.477,4.3013 L 38.6774,4.7081 L 38.8778,5.131 L 39.0782,5.53 L 39.2786,5.9418 L 39.479,6.3537 L 39.6794,6.7412 L 39.8798,7.0117 L 40.0802,7.1366 L 40.2806,7.2493 L 40.481,7.347 L 40.6814,7.4387 L 40.8818,7.5205 L 41.0822,7.5966 L 41.2826,7.6693 L 41.483,7.7421 L 41.6834,7.8217 L 41.8838,7.9129 L 42.0842,8.0089 L 42.2846,8.1088 L 42.485,8.2006 L 42.6854,8.2946 L 42.8858,8.3926 L 43.0862,8.4947 L 43.2866,8.5825 L 43.487,8.6607 L 43.6874,8.7349 L 43.8878,8.8055 L 44.0882,8.873 L 44.2886,8.9413 L 44.489,9.0101 L 44.6894,9.1626 L 44.8898,9.3067 L 45.0902,9.4497 L 45.2906,9.5859 L 45.491,9.7193 L 45.6914,9.8357 L 45.8918,9.9311 L 46.0922,9.993 L 46.2926,10.0218 L 46.493,9.8767 L 46.6934,9.9099 L 46.8938,9.9365 L 47.0942,9.9631 L 47.2946,9.9878 L 47.495,10.028 L 47.6954,10.0722 L 47.8958,10.1205 L 48.0962,10.1511 L 48.2966,10.1707 L 48.497,10.1978 L 48.6974,10.2314 L 48.8978,10.2663 L 49.0982,10.326 L 49.2986,10.3971 L 49.499,10.4526 L 49.6994,10.5072 L 49.8998,10.5504 L 50.1002,10.9865 L 50.3006,11.0586 L 50.501,11.1092 L 50.7014,11.142 L 50.9018,11.0835 L 51.1022,11.0136 L 51.3026,10.9523 L 51.503,10.9413 L 51.7034,10.8178 L 51.9038,10.5441 L 52.1042,10.3043 L 52.3046,10.1434 L 52.505,10.0748 L 52.7054,9.9564 L 52.9058,9.8368 L 53.1062,9.7595 L 53.3066,9.7021 L 53.507,9.6502 L 53.7074,9.7736 L 53.9078,9.9647 L 54.1082,10.1286 L 54.3086,10.3804 L 54.509,10.6844 L 54.7094,10.85 L 54.9098,10.9399 L 55.1102,10.96 L 55.3106,10.9909 L 55.511,10.9965 L 55.7114,10.9627 L 55.9118,10.9 L 56.1122,10.8621 L 56.3126,10.7998 L 56.513,10.6434 L 56.7134,10.5167 L 56.9138,10.3628 L 57.1142,10.2084 L 57.3146,10.0544 L 57.515,9.9006 L 57.7154,9.7509 L 57.9158,9.6004 L 58.1162,9.4449 L 58.3166,9.2812 L 58.517,9.1006 L 58.7174,8.8914 L 58.9178,8.6157 L 59.1182,8.3022 L 59.3186,7.935 L 59.519,7.2046 L 59.7194,6.5464 L 59.9198,5.9692 L 60.1202,5.43 L 60.3206,4.9087 L 60.521,4.679 L 60.7214,4.5007 L 60.9218,4.5126 L 61.1222,4.7965 L 61.3226,4.9845 L 61.523,5.2393 L 61.7234,5.486 L 61.9238,5.8433 L 62.1242,6.3246 L 62.3246,6.7077 L 62.5251,7.0643 L 62.7255,7.4365 L 62.9259,7.7209 L 63.1263,7.9596 L 63.3267,8.3294 L 63.5271,8.6725 L 63.7275,8.954 L 63.9279,9.3973 L 64.1283,9.7973 L 64.3287,10.1396 L 64.5291,10.4018 L 64.7295,10.6609 L 64.9299,10.8058 L 65.1303,10.8666 L 65.3307,10.9708 L 65.5311,11.1232 L 65.7315,11.2406 L 65.9319,11.5731 L 66.1323,11.9367 L 66.3327,12.2601 L 66.5331,12.5237 L 66.7335,12.7163 L 66.9339,12.9206 L 67.1343,13.1388 L 67.3347,13.4191 L 67.5351,13.6694 L 67.7355,13.9345 L 67.9359,14.4173 L 68.1363,14.897 L 68.3367,15.2216 L 68.5371,15.4333 L 68.7375,15.6142 L 68.9379,15.7221 L 69.1383,15.7524 L 69.3387,15.8988 L 69.5391,16.1056 L 69.7395,15.9781 L 69.9399,16.044 L 70.1403,16.3585 L 70.3407,16.7368 L 70.5411,17.1566 L 70.7415,17.5449 L 70.9419,17.8816 L 71.1423,18.2353 L 71.3427,18.6452 L 71.5431,18.8807 L 71.7435,19.1937 L 71.9439,19.5061 L 72.1443,19.7973 L 72.3447,20.0396 L 72.5451,20.1566 L 72.7455,20.2821 L 72.9459,20.2535 L 73.1463,20.1762 L 73.3467,20.0665 L 73.5471,19.9398 L 73.7475,19.8451 L 73.9479,19.8203 L 74.1483,19.9229 L 74.3487,20.0841 L 74.5491,20.2551 L 74.7495,20.4232 L 74.9499,20.6475 L 75.1503,20.8745 L 75.3507,21.1349 L 75.5511,21.4231 L 75.7515,21.6709 L 75.9519,21.9517 L 76.1523,22.2456 L 76.3527,22.5274 L 76.5531,22.7045 L 76.7535,22.8851 L 76.9539,23.0497 L 77.1543,23.1984 L 77.3547,23.3449 L 77.5551,23.4878 L 77.7555,23.6163 L 77.9559,23.7262 L 78.1563,23.7499 L 78.3567,23.7378 L 78.5571,23.7183 L 78.7575,23.6736 L 78.9579,23.6265 L 79.1583,23.5812 L 79.3587,23.542 L 79.5591,23.4643 L 79.7595,23.3641 L 79.9599,23.248 L 80.1603,23.1572 L 80.3607,23.1063 L 80.5611,23.0758 L 80.7615,23.0223 L 80.9619,22.9638 L 81.1623,22.9461 L 81.3627,22.8968 L 81.5631,22.6289 L 81.7635,22.2756 L 81.9639,22.0273 L 82.1643,21.7535 L 82.3647,21.4097 L 82.5651,21.0653 L 82.7655,20.7208 L 82.9659,20.4433 L 83.1663,20.2497 L 83.3667,20.1061 L 83.5671,20.0398 L 83.7675,19.945 L 83.9679,19.8564 L 84.1683,19.9677 L 84.3687,20.1731 L 84.5691,20.1621 L 84.7695,20.0916 L 84.9699,19.8723 L 85.1703,20.1262 L 85.3707,20.3457 L 85.5711,20.4549 L 85.7715,20.7638 L 85.9719,21.2836 L 86.1723,21.76 L 86.3727,22.2292 L 86.5731,22.7797 L 86.7735,23.3842 L 86.9739,23.9049 L 87.1743,24.4332 L 87.3747,24.9114 L 87.5752,25.3332 L 87.7756,25.6936 L 87.976,25.8496 L 88.1764,26.0696 L 88.3768,26.4851 L 88.5772,26.8737 L 88.7776,27.2615 L 88.978,27.5699 L 89.1784,27.9687 L 89.3788,28.3621 L 89.5792,28.8283 L 89.7796,29.3693 L 89.98,29.8689 L 90.1804,30.2633 L 90.3808,30.7303 L 90.5812,31.1739 L 90.7816,31.5266 L 90.982,31.7832 L 91.1824,32.0601 L 91.3828,32.1932 L 91.5832,32.348 L 91.7836,32.5365 L 91.984,32.8953 L 92.1844,33.3275 L 92.3848,33.7584 L 92.5852,34.2336 L 92.7856,34.7304 L 92.986,35.3003 L 93.1864,35.8266 L 93.3868,36.3721 L 93.5872,36.8216 L 93.7876,37.2726 L 93.988,37.7874 L 94.1884,38.2676 L 94.3888,38.8302 L 94.5892,39.2656 L 94.7896,39.6361 L 94.99,39.982 L 95.1904,40.2681 L 95.3908,40.7406 L 95.5912,41.2457 L 95.7916,41.6173 L 95.992,41.8948 L 96.1924,42.2714 L 96.3928,42.5277 L 96.5932,42.8695 L 96.7936,43.3365 L 96.994,43.8333 L 97.1944,44.3074 L 97.3948,44.4868 L 97.5952,44.6022 L 97.7956,44.728 L 97.996,44.7646 L 98.1964,44.8973 L 98.3968,45.0671 L 98.5972,45.2548 L 98.7976,45.5035 L 98.998,45.8008 L 99.1984,46.1783 L 99.3988,46.455 L 99.5992,46.7655 L 99.7996,47.1352 L 100,47.5891" />
	

		<path
			style="transform: translateY(0%) scaleY(30%)"
			fill="transparent"
			stroke="currentColor"
			strokeWidth="1%"
			d="M 0,32.2599 L 0.2004,32.5684 L 0.4008,32.9006 L 0.6012,33.1656 L 0.8016,33.2305 L 1.002,33.3866 L 1.2024,33.6544 L 1.4028,33.8223 L 1.6032,34.0426 L 1.8036,34.0768 L 2.004,34.091 L 2.2044,34.1284 L 2.4048,34.1725 L 2.6052,34.205 L 2.8056,34.2253 L 3.006,34.3432 L 3.2064,34.4862 L 3.4068,34.8223 L 3.6072,34.4723 L 3.8076,34.2571 L 4.008,34.1643 L 4.2084,34.1227 L 4.4088,34.0605 L 4.6092,33.9956 L 4.8096,33.8576 L 5.01,33.7024 L 5.2104,33.5209 L 5.4108,33.3019 L 5.6112,33.0529 L 5.8116,32.7847 L 6.012,32.3283 L 6.2124,31.8189 L 6.4128,31.4241 L 6.6132,31.0156 L 6.8136,30.7538 L 7.014,30.6044 L 7.2144,30.3537 L 7.4148,30.0318 L 7.6152,29.6965 L 7.8156,29.5708 L 8.016,29.5909 L 8.2164,29.6331 L 8.4168,29.728 L 8.6172,29.7112 L 8.8176,29.5886 L 9.018,29.5026 L 9.2184,29.4216 L 9.4188,29.3468 L 9.6192,29.3225 L 9.8196,29.1572 L 10.02,28.8665 L 10.2204,28.6299 L 10.4208,28.3517 L 10.6212,28.0844 L 10.8216,27.8532 L 11.022,27.6318 L 11.2224,27.3669 L 11.4228,26.9948 L 11.6232,26.7256 L 11.8236,26.3364 L 12.024,26.0255 L 12.2244,25.8824 L 12.4248,25.7538 L 12.6253,25.589 L 12.8257,25.3844 L 13.0261,25.3728 L 13.2265,25.3551 L 13.4269,25.3907 L 13.6273,25.4621 L 13.8277,25.419 L 14.0281,25.2549 L 14.2285,25.0296 L 14.4289,24.7201 L 14.6293,24.3887 L 14.8297,24.1305 L 15.0301,23.9043 L 15.2305,23.7571 L 15.4309,23.636 L 15.6313,23.6189 L 15.8317,23.5096 L 16.0321,23.4354 L 16.2325,23.3704 L 16.4329,23.3835 L 16.6333,23.3894 L 16.8337,23.3692 L 17.0341,23.2852 L 17.2345,23.1559 L 17.4349,23.0529 L 17.6353,22.8325 L 17.8357,22.7384 L 18.0361,22.707 L 18.2365,22.5936 L 18.4369,22.3906 L 18.6373,22.1494 L 18.8377,21.886 L 19.0381,21.6221 L 19.2385,21.3578 L 19.4389,21.0833 L 19.6393,20.8005 L 19.8397,20.5258 L 20.0401,20.236 L 20.2405,19.9548 L 20.4409,19.6838 L 20.6413,19.4114 L 20.8417,19.1442 L 21.0421,18.8893 L 21.2425,18.6626 L 21.4429,18.4265 L 21.6433,18.2321 L 21.8437,18.0575 L 22.0441,17.8863 L 22.2445,17.6832 L 22.4449,17.3939 L 22.6453,17.1765 L 22.8457,16.768 L 23.0461,15.9679 L 23.2465,15.0045 L 23.4469,14.2976 L 23.6473,13.6691 L 23.8477,12.9806 L 24.0481,12.3596 L 24.2485,12.2024 L 24.4489,11.7322 L 24.6493,11.099 L 24.8497,10.1859 L 25.0501,9.2462 L 25.2505,8.4102 L 25.4509,7.8397 L 25.6513,7.2299 L 25.8517,6.5323 L 26.0521,5.8438 L 26.2525,5.1379 L 26.4529,4.3233 L 26.6533,3.7291 L 26.8537,3.5037 L 27.0541,3.4445 L 27.2545,3.6514 L 27.4549,3.9753 L 27.6553,4.2649 L 27.8557,4.4726 L 28.0561,4.4785 L 28.2565,4.4588 L 28.4569,4.4421 L 28.6573,4.3952 L 28.8577,4.1933 L 29.0581,4.002 L 29.2585,3.822 L 29.4589,3.5692 L 29.6593,3.1136 L 29.8597,2.7384 L 30.0601,2.4329 L 30.2605,2.0764 L 30.4609,1.7733 L 30.6613,1.361 L 30.8617,0.9527 L 31.0621,0.685 L 31.2625,0.6437 L 31.4629,0.5052 L 31.6633,0.3601 L 31.8637,0.2936 L 32.0641,0.252 L 32.2645,0.1651 L 32.4649,0.0869 L 32.6653,0 L 32.8657,0.051 L 33.0661,0.4966 L 33.2665,0.9249 L 33.4669,1.2215 L 33.6673,1.3672 L 33.8677,1.545 L 34.0681,1.6901 L 34.2685,1.611 L 34.4689,1.6564 L 34.6693,1.5733 L 34.8697,1.604 L 35.0701,1.8193 L 35.2705,2.2197 L 35.4709,2.7747 L 35.6713,3.1907 L 35.8717,3.4866 L 36.0721,4.0747 L 36.2725,4.6756 L 36.4729,5.1143 L 36.6733,5.49 L 36.8737,5.7833 L 37.0741,6.1046 L 37.2745,6.4886 L 37.4749,7.0021 L 37.6754,7.2184 L 37.8758,7.3244 L 38.0762,7.515 L 38.2766,7.7254 L 38.477,7.8832 L 38.6774,7.9602 L 38.8778,7.976 L 39.0782,8.0006 L 39.2786,7.9808 L 39.479,7.9982 L 39.6794,8.0228 L 39.8798,8.1024 L 40.0802,8.3368 L 40.2806,8.2974 L 40.481,8.2989 L 40.6814,8.1746 L 40.8818,8.0279 L 41.0822,7.7036 L 41.2826,7.4273 L 41.483,7.0766 L 41.6834,7.0134 L 41.8838,7.0863 L 42.0842,7.0581 L 42.2846,7.1819 L 42.485,6.4885 L 42.6854,5.8781 L 42.8858,5.3733 L 43.0862,5.4645 L 43.2866,5.5309 L 43.487,5.4697 L 43.6874,5.7464 L 43.8878,6.0835 L 44.0882,6.5338 L 44.2886,7.0607 L 44.489,7.5457 L 44.6894,7.9166 L 44.8898,8.1694 L 45.0902,8.7095 L 45.2906,9.2284 L 45.491,9.481 L 45.6914,9.6901 L 45.8918,9.7953 L 46.0922,9.881 L 46.2926,9.868 L 46.493,9.8168 L 46.6934,9.594 L 46.8938,9.6024 L 47.0942,9.4308 L 47.2946,9.7805 L 47.495,10.2049 L 47.6954,10.6426 L 47.8958,11.0629 L 48.0962,11.7515 L 48.2966,12.3752 L 48.497,12.5274 L 48.6974,12.6024 L 48.8978,12.7686 L 49.0982,12.9643 L 49.2986,13.1973 L 49.499,13.5844 L 49.6994,14.004 L 49.8998,14.2217 L 50.1002,14.3151 L 50.3006,14.7014 L 50.501,15.0785 L 50.7014,15.2665 L 50.9018,15.346 L 51.1022,15.2726 L 51.3026,15.0717 L 51.503,14.9678 L 51.7034,14.8613 L 51.9038,14.7332 L 52.1042,14.6752 L 52.3046,14.636 L 52.505,14.5796 L 52.7054,14.3917 L 52.9058,14.1846 L 53.1062,13.9804 L 53.3066,13.6725 L 53.507,13.3789 L 53.7074,13.1339 L 53.9078,12.9628 L 54.1082,12.8403 L 54.3086,12.7078 L 54.509,12.5693 L 54.7094,12.4634 L 54.9098,12.4016 L 55.1102,12.3526 L 55.3106,12.2115 L 55.511,12.1128 L 55.7114,12.0335 L 55.9118,11.9269 L 56.1122,11.811 L 56.3126,11.6294 L 56.513,11.4311 L 56.7134,11.2485 L 56.9138,11.0517 L 57.1142,10.8917 L 57.3146,10.7248 L 57.515,10.5767 L 57.7154,10.4392 L 57.9158,10.2387 L 58.1162,9.9794 L 58.3166,9.715 L 58.517,9.4304 L 58.7174,9.0329 L 58.9178,8.7578 L 59.1182,8.5595 L 59.3186,8.3557 L 59.519,8.1538 L 59.7194,7.9508 L 59.9198,7.752 L 60.1202,7.5749 L 60.3206,7.4251 L 60.521,7.2939 L 60.7214,7.1665 L 60.9218,7.0369 L 61.1222,6.9119 L 61.3226,6.8031 L 61.523,6.6971 L 61.7234,6.5885 L 61.9238,6.4746 L 62.1242,6.3409 L 62.3246,6.171 L 62.5251,5.9844 L 62.7255,5.78 L 62.9259,5.4899 L 63.1263,5.1707 L 63.3267,4.8346 L 63.5271,4.4761 L 63.7275,4.0923 L 63.9279,3.7275 L 64.1283,3.3837 L 64.3287,3.0894 L 64.5291,2.8195 L 64.7295,2.5655 L 64.9299,2.3261 L 65.1303,2.097 L 65.3307,1.8715 L 65.5311,1.6528 L 65.7315,1.403 L 65.9319,1.1676 L 66.1323,1.1071 L 66.3327,1.3144 L 66.5331,1.6202 L 66.7335,2.0389 L 66.9339,2.5287 L 67.1343,2.9145 L 67.3347,3.3555 L 67.5351,3.8592 L 67.7355,4.3712 L 67.9359,4.7932 L 68.1363,5.2409 L 68.3367,5.6914 L 68.5371,6.1146 L 68.7375,6.4752 L 68.9379,6.8166 L 69.1383,7.1534 L 69.3387,7.5236 L 69.5391,7.8544 L 69.7395,8.1988 L 69.9399,8.5565 L 70.1403,8.9182 L 70.3407,9.233 L 70.5411,9.5277 L 70.7415,9.8098 L 70.9419,10.0832 L 71.1423,10.2823 L 71.3427,10.3837 L 71.5431,10.4454 L 71.7435,10.4249 L 71.9439,10.3756 L 72.1443,10.1752 L 72.3447,9.8382 L 72.5451,9.7582 L 72.7455,9.7959 L 72.9459,9.8789 L 73.1463,10.2071 L 73.3467,10.708 L 73.5471,11.1849 L 73.7475,11.6055 L 73.9479,12.0367 L 74.1483,12.5735 L 74.3487,13.0716 L 74.5491,13.5882 L 74.7495,13.9814 L 74.9499,14.3778 L 75.1503,14.6844 L 75.3507,15.0099 L 75.5511,15.4846 L 75.7515,16.002 L 75.9519,16.6005 L 76.1523,16.9692 L 76.3527,17.5123 L 76.5531,18.2725 L 76.7535,18.8579 L 76.9539,19.3301 L 77.1543,19.7694 L 77.3547,20.1937 L 77.5551,20.7079 L 77.7555,21.1774 L 77.9559,21.6439 L 78.1563,22.0728 L 78.3567,22.5057 L 78.5571,22.9282 L 78.7575,23.3478 L 78.9579,23.7684 L 79.1583,24.1463 L 79.3587,24.5125 L 79.5591,24.8803 L 79.7595,25.2133 L 79.9599,25.5199 L 80.1603,25.8071 L 80.3607,26.0823 L 80.5611,26.3153 L 80.7615,26.5529 L 80.9619,26.7583 L 81.1623,26.9358 L 81.3627,27.1535 L 81.5631,27.527 L 81.7635,28.0281 L 81.9639,28.5622 L 82.1643,29.0799 L 82.3647,29.549 L 82.5651,29.958 L 82.7655,30.3942 L 82.9659,30.7064 L 83.1663,30.982 L 83.3667,31.514 L 83.5671,31.975 L 83.7675,32.2778 L 83.9679,32.591 L 84.1683,33.1417 L 84.3687,33.608 L 84.5691,34.0525 L 84.7695,34.4738 L 84.9699,34.6449 L 85.1703,34.6994 L 85.3707,34.7429 L 85.5711,34.8673 L 85.7715,34.9668 L 85.9719,34.9889 L 86.1723,35.0658 L 86.3727,35.1112 L 86.5731,35.1997 L 86.7735,35.318 L 86.9739,35.5245 L 87.1743,35.817 L 87.3747,36.0199 L 87.5752,36.1755 L 87.7756,36.4232 L 87.976,36.6493 L 88.1764,36.8315 L 88.3768,36.9888 L 88.5772,37.1146 L 88.7776,37.1935 L 88.978,37.3137 L 89.1784,37.2794 L 89.3788,37.4582 L 89.5792,37.4586 L 89.7796,37.5248 L 89.98,37.6613 L 90.1804,37.7111 L 90.3808,37.7829 L 90.5812,37.9398 L 90.7816,37.9644 L 90.982,38.077 L 91.1824,38.2193 L 91.3828,38.4129 L 91.5832,38.6461 L 91.7836,38.6975 L 91.984,38.8783 L 92.1844,38.9277 L 92.3848,39.0389 L 92.5852,39.2058 L 92.7856,39.3517 L 92.986,39.6161 L 93.1864,39.9458 L 93.3868,40.2408 L 93.5872,40.6232 L 93.7876,40.9318 L 93.988,41.1443 L 94.1884,41.445 L 94.3888,41.7368 L 94.5892,41.9931 L 94.7896,42.2618 L 94.99,42.4993 L 95.1904,42.7226 L 95.3908,42.944 L 95.5912,43.1756 L 95.7916,43.4961 L 95.992,44.0127 L 96.1924,44.5628 L 96.3928,44.9618 L 96.5932,45.345 L 96.7936,45.6548 L 96.994,45.9219 L 97.1944,46.1394 L 97.3948,46.1962 L 97.5952,46.2719 L 97.7956,46.3407 L 97.996,46.3837 L 98.1964,46.4546 L 98.3968,46.5114 L 98.5972,46.5511 L 98.7976,46.6093 L 98.998,46.7424 L 99.1984,47.0933 L 99.3988,47.6997 L 99.5992,48.7035 L 99.7996,49.0638 L 100,49.4295" />
	
	</svg>